<svg width="577" height="278" viewBox="0 0 577 278" fill="none" xmlns="http://www.w3.org/2000/svg">
<rect width="577" height="278" fill="white"/>
<path d="M511.5 197.5L576.5 132.5V1L511.5 66V197.5Z" fill="#FDEBDD"/>
<path d="M465 197.5H511.5V66H465V197.5Z" fill="#FDEBDD"/>
<path d="M511.5 66L576.5 1H530L465 66H511.5Z" fill="#FDEBDD"/>
<path d="M511.5 197.5H465V66M511.5 197.5L576.5 132.5V1M511.5 197.5V66M576.5 1L511.5 66M576.5 1H530L465 66M511.5 66H465" stroke="#424242"/>
<path d="M189.306 206.896C189.192 207.945 188.816 208.747 188.178 209.303C187.544 209.859 186.699 210.137 185.642 210.137C184.903 210.137 184.249 209.952 183.68 209.583C183.115 209.214 182.677 208.692 182.367 208.018C182.057 207.339 181.9 206.564 181.896 205.693V204.401C181.896 203.517 182.05 202.733 182.36 202.05C182.67 201.366 183.115 200.84 183.693 200.471C184.277 200.097 184.947 199.91 185.703 199.91C186.77 199.91 187.61 200.2 188.226 200.778C188.845 201.353 189.205 202.148 189.306 203.164H188.458C188.248 201.473 187.33 200.628 185.703 200.628C184.801 200.628 184.081 200.965 183.543 201.64C183.01 202.314 182.743 203.246 182.743 204.436V205.652C182.743 206.801 183.003 207.717 183.522 208.4C184.047 209.084 184.753 209.426 185.642 209.426C186.521 209.426 187.184 209.216 187.631 208.797C188.077 208.373 188.353 207.74 188.458 206.896H189.306ZM191.042 210.854H190.297L194.453 200.047H195.191L191.042 210.854ZM201.617 206.794H203.169V207.484H201.617V210H200.797V207.484H196.114V207.02L200.722 200.047H201.617V206.794ZM197.119 206.794H200.797V201.106L200.435 201.735L197.119 206.794Z" fill="black"/>
<path d="M329.306 206.896C329.192 207.945 328.816 208.747 328.178 209.303C327.544 209.859 326.699 210.137 325.642 210.137C324.903 210.137 324.249 209.952 323.68 209.583C323.115 209.214 322.677 208.692 322.367 208.018C322.057 207.339 321.9 206.564 321.896 205.693V204.401C321.896 203.517 322.05 202.733 322.36 202.05C322.67 201.366 323.115 200.84 323.693 200.471C324.277 200.097 324.947 199.91 325.703 199.91C326.77 199.91 327.61 200.2 328.226 200.778C328.845 201.353 329.205 202.148 329.306 203.164H328.458C328.248 201.473 327.33 200.628 325.703 200.628C324.801 200.628 324.081 200.965 323.543 201.64C323.01 202.314 322.743 203.246 322.743 204.436V205.652C322.743 206.801 323.003 207.717 323.522 208.4C324.047 209.084 324.753 209.426 325.642 209.426C326.521 209.426 327.184 209.216 327.631 208.797C328.077 208.373 328.353 207.74 328.458 206.896H329.306ZM331.042 210.854H330.297L334.453 200.047H335.191L331.042 210.854ZM341.617 206.794H343.169V207.484H341.617V210H340.797V207.484H336.114V207.02L340.722 200.047H341.617V206.794ZM337.119 206.794H340.797V201.106L340.435 201.735L337.119 206.794Z" fill="black"/>
<path d="M492.306 206.896C492.192 207.945 491.816 208.747 491.178 209.303C490.544 209.859 489.699 210.137 488.642 210.137C487.903 210.137 487.249 209.952 486.68 209.583C486.115 209.214 485.677 208.692 485.367 208.018C485.057 207.339 484.9 206.564 484.896 205.693V204.401C484.896 203.517 485.05 202.733 485.36 202.05C485.67 201.366 486.115 200.84 486.693 200.471C487.277 200.097 487.947 199.91 488.703 199.91C489.77 199.91 490.61 200.2 491.226 200.778C491.845 201.353 492.205 202.148 492.306 203.164H491.458C491.248 201.473 490.33 200.628 488.703 200.628C487.801 200.628 487.081 200.965 486.543 201.64C486.01 202.314 485.743 203.246 485.743 204.436V205.652C485.743 206.801 486.003 207.717 486.522 208.4C487.047 209.084 487.753 209.426 488.642 209.426C489.521 209.426 490.184 209.216 490.631 208.797C491.077 208.373 491.353 207.74 491.458 206.896H492.306Z" fill="black"/>
<path d="M128.924 131.104C129.375 131.104 129.769 130.968 130.106 130.694C130.444 130.421 130.631 130.079 130.667 129.669H131.863C131.84 130.093 131.695 130.496 131.426 130.879C131.157 131.262 130.797 131.567 130.346 131.795C129.899 132.023 129.425 132.137 128.924 132.137C127.917 132.137 127.115 131.802 126.518 131.132C125.925 130.457 125.629 129.537 125.629 128.37V128.158C125.629 127.438 125.761 126.798 126.025 126.237C126.29 125.677 126.668 125.242 127.16 124.932C127.657 124.622 128.243 124.467 128.917 124.467C129.746 124.467 130.435 124.715 130.981 125.212C131.533 125.709 131.827 126.354 131.863 127.146H130.667C130.631 126.668 130.448 126.276 130.12 125.971C129.797 125.661 129.396 125.506 128.917 125.506C128.274 125.506 127.775 125.738 127.42 126.203C127.069 126.663 126.894 127.331 126.894 128.206V128.445C126.894 129.298 127.069 129.954 127.42 130.414C127.771 130.874 128.272 131.104 128.924 131.104ZM132.95 128.233C132.95 127.509 133.091 126.857 133.374 126.278C133.661 125.7 134.058 125.253 134.563 124.938C135.074 124.624 135.655 124.467 136.307 124.467C137.314 124.467 138.127 124.815 138.747 125.513C139.371 126.21 139.684 127.137 139.684 128.295V128.384C139.684 129.104 139.545 129.751 139.267 130.325C138.993 130.895 138.599 131.339 138.084 131.658C137.574 131.977 136.986 132.137 136.32 132.137C135.318 132.137 134.504 131.788 133.88 131.091C133.26 130.394 132.95 129.471 132.95 128.322V128.233ZM134.222 128.384C134.222 129.204 134.411 129.863 134.789 130.359C135.172 130.856 135.682 131.104 136.32 131.104C136.963 131.104 137.473 130.854 137.852 130.353C138.23 129.847 138.419 129.14 138.419 128.233C138.419 127.422 138.225 126.766 137.838 126.265C137.455 125.759 136.945 125.506 136.307 125.506C135.682 125.506 135.179 125.754 134.796 126.251C134.413 126.748 134.222 127.459 134.222 128.384ZM142.466 124.604L142.507 125.533C143.072 124.822 143.81 124.467 144.722 124.467C146.285 124.467 147.073 125.349 147.087 127.112V132H145.822V127.105C145.818 126.572 145.695 126.178 145.453 125.923C145.216 125.668 144.845 125.54 144.339 125.54C143.929 125.54 143.569 125.649 143.259 125.868C142.949 126.087 142.707 126.374 142.534 126.729V132H141.27V124.604H142.466ZM151.435 130.284L153.267 124.604H154.559L151.906 132H150.942L148.263 124.604H149.555L151.435 130.284ZM163.274 132H162.003V123.571L159.453 124.508V123.359L163.076 121.999H163.274V132ZM169.591 127.304L171.231 124.604H172.708L170.288 128.261L172.783 132H171.32L169.611 129.231L167.902 132H166.433L168.928 128.261L166.508 124.604H167.971L169.591 127.304ZM178.081 132H176.81V123.571L174.26 124.508V123.359L177.883 121.999H178.081V132Z" fill="black"/>
<path d="M410.924 131.104C411.375 131.104 411.769 130.968 412.106 130.694C412.444 130.421 412.631 130.079 412.667 129.669H413.863C413.84 130.093 413.695 130.496 413.426 130.879C413.157 131.262 412.797 131.567 412.346 131.795C411.899 132.023 411.425 132.137 410.924 132.137C409.917 132.137 409.115 131.802 408.518 131.132C407.925 130.457 407.629 129.537 407.629 128.37V128.158C407.629 127.438 407.761 126.798 408.025 126.237C408.29 125.677 408.668 125.242 409.16 124.932C409.657 124.622 410.243 124.467 410.917 124.467C411.746 124.467 412.435 124.715 412.981 125.212C413.533 125.709 413.827 126.354 413.863 127.146H412.667C412.631 126.668 412.448 126.276 412.12 125.971C411.797 125.661 411.396 125.506 410.917 125.506C410.274 125.506 409.775 125.738 409.42 126.203C409.069 126.663 408.894 127.331 408.894 128.206V128.445C408.894 129.298 409.069 129.954 409.42 130.414C409.771 130.874 410.272 131.104 410.924 131.104ZM414.95 128.233C414.95 127.509 415.091 126.857 415.374 126.278C415.661 125.7 416.058 125.253 416.563 124.938C417.074 124.624 417.655 124.467 418.307 124.467C419.314 124.467 420.127 124.815 420.747 125.513C421.371 126.21 421.684 127.137 421.684 128.295V128.384C421.684 129.104 421.545 129.751 421.267 130.325C420.993 130.895 420.599 131.339 420.084 131.658C419.574 131.977 418.986 132.137 418.32 132.137C417.318 132.137 416.504 131.788 415.88 131.091C415.26 130.394 414.95 129.471 414.95 128.322V128.233ZM416.222 128.384C416.222 129.204 416.411 129.863 416.789 130.359C417.172 130.856 417.682 131.104 418.32 131.104C418.963 131.104 419.473 130.854 419.852 130.353C420.23 129.847 420.419 129.14 420.419 128.233C420.419 127.422 420.225 126.766 419.838 126.265C419.455 125.759 418.945 125.506 418.307 125.506C417.682 125.506 417.179 125.754 416.796 126.251C416.413 126.748 416.222 127.459 416.222 128.384ZM424.466 124.604L424.507 125.533C425.072 124.822 425.81 124.467 426.722 124.467C428.285 124.467 429.073 125.349 429.087 127.112V132H427.822V127.105C427.818 126.572 427.695 126.178 427.453 125.923C427.216 125.668 426.845 125.54 426.339 125.54C425.929 125.54 425.569 125.649 425.259 125.868C424.949 126.087 424.707 126.374 424.534 126.729V132H423.27V124.604H424.466ZM433.435 130.284L435.267 124.604H436.559L433.906 132H432.942L430.263 124.604H431.555L433.435 130.284ZM445.274 132H444.003V123.571L441.453 124.508V123.359L445.076 121.999H445.274V132ZM451.591 127.304L453.231 124.604H454.708L452.288 128.261L454.783 132H453.32L451.611 129.231L449.902 132H448.433L450.928 128.261L448.508 124.604H449.971L451.591 127.304ZM460.081 132H458.81V123.571L456.26 124.508V123.359L459.883 121.999H460.081V132Z" fill="black"/>
<path d="M271.424 131.104C271.875 131.104 272.269 130.968 272.606 130.694C272.944 130.421 273.131 130.079 273.167 129.669H274.363C274.34 130.093 274.195 130.496 273.926 130.879C273.657 131.262 273.297 131.567 272.846 131.795C272.399 132.023 271.925 132.137 271.424 132.137C270.417 132.137 269.615 131.802 269.018 131.132C268.425 130.457 268.129 129.537 268.129 128.37V128.158C268.129 127.438 268.261 126.798 268.525 126.237C268.79 125.677 269.168 125.242 269.66 124.932C270.157 124.622 270.743 124.467 271.417 124.467C272.246 124.467 272.935 124.715 273.481 125.212C274.033 125.709 274.327 126.354 274.363 127.146H273.167C273.131 126.668 272.948 126.276 272.62 125.971C272.297 125.661 271.896 125.506 271.417 125.506C270.774 125.506 270.275 125.738 269.92 126.203C269.569 126.663 269.394 127.331 269.394 128.206V128.445C269.394 129.298 269.569 129.954 269.92 130.414C270.271 130.874 270.772 131.104 271.424 131.104ZM275.45 128.233C275.45 127.509 275.591 126.857 275.874 126.278C276.161 125.7 276.558 125.253 277.063 124.938C277.574 124.624 278.155 124.467 278.807 124.467C279.814 124.467 280.627 124.815 281.247 125.513C281.871 126.21 282.184 127.137 282.184 128.295V128.384C282.184 129.104 282.045 129.751 281.767 130.325C281.493 130.895 281.099 131.339 280.584 131.658C280.074 131.977 279.486 132.137 278.82 132.137C277.818 132.137 277.004 131.788 276.38 131.091C275.76 130.394 275.45 129.471 275.45 128.322V128.233ZM276.722 128.384C276.722 129.204 276.911 129.863 277.289 130.359C277.672 130.856 278.182 131.104 278.82 131.104C279.463 131.104 279.973 130.854 280.352 130.353C280.73 129.847 280.919 129.14 280.919 128.233C280.919 127.422 280.725 126.766 280.338 126.265C279.955 125.759 279.445 125.506 278.807 125.506C278.182 125.506 277.679 125.754 277.296 126.251C276.913 126.748 276.722 127.459 276.722 128.384ZM284.966 124.604L285.007 125.533C285.572 124.822 286.31 124.467 287.222 124.467C288.785 124.467 289.573 125.349 289.587 127.112V132H288.322V127.105C288.318 126.572 288.195 126.178 287.953 125.923C287.716 125.668 287.345 125.54 286.839 125.54C286.429 125.54 286.069 125.649 285.759 125.868C285.449 126.087 285.207 126.374 285.034 126.729V132H283.77V124.604H284.966ZM293.935 130.284L295.767 124.604H297.059L294.406 132H293.442L290.763 124.604H292.055L293.935 130.284ZM303.457 126.408H304.407C305.004 126.399 305.474 126.242 305.815 125.937C306.157 125.631 306.328 125.219 306.328 124.699C306.328 123.533 305.747 122.949 304.585 122.949C304.038 122.949 303.601 123.106 303.272 123.421C302.949 123.731 302.787 124.143 302.787 124.658H301.522C301.522 123.87 301.81 123.216 302.384 122.696C302.963 122.172 303.696 121.91 304.585 121.91C305.524 121.91 306.26 122.159 306.793 122.655C307.326 123.152 307.593 123.842 307.593 124.727C307.593 125.16 307.451 125.579 307.169 125.984C306.891 126.39 306.51 126.693 306.027 126.894C306.574 127.067 306.996 127.354 307.292 127.755C307.593 128.156 307.743 128.646 307.743 129.225C307.743 130.118 307.451 130.826 306.868 131.351C306.285 131.875 305.526 132.137 304.592 132.137C303.658 132.137 302.896 131.884 302.309 131.378C301.725 130.872 301.434 130.204 301.434 129.375H302.705C302.705 129.899 302.876 130.318 303.218 130.633C303.56 130.947 304.018 131.104 304.592 131.104C305.202 131.104 305.67 130.945 305.993 130.626C306.317 130.307 306.479 129.849 306.479 129.252C306.479 128.673 306.301 128.229 305.945 127.919C305.59 127.609 305.077 127.45 304.407 127.44H303.457V126.408ZM312.091 127.304L313.731 124.604H315.208L312.788 128.261L315.283 132H313.82L312.111 129.231L310.402 132H308.933L311.428 128.261L309.008 124.604H310.471L312.091 127.304ZM318.264 126.408H319.214C319.811 126.399 320.28 126.242 320.622 125.937C320.964 125.631 321.135 125.219 321.135 124.699C321.135 123.533 320.554 122.949 319.392 122.949C318.845 122.949 318.407 123.106 318.079 123.421C317.756 123.731 317.594 124.143 317.594 124.658H316.329C316.329 123.87 316.616 123.216 317.19 122.696C317.769 122.172 318.503 121.91 319.392 121.91C320.33 121.91 321.066 122.159 321.6 122.655C322.133 123.152 322.399 123.842 322.399 124.727C322.399 125.16 322.258 125.579 321.976 125.984C321.698 126.39 321.317 126.693 320.834 126.894C321.381 127.067 321.802 127.354 322.099 127.755C322.399 128.156 322.55 128.646 322.55 129.225C322.55 130.118 322.258 130.826 321.675 131.351C321.091 131.875 320.333 132.137 319.398 132.137C318.464 132.137 317.703 131.884 317.115 131.378C316.532 130.872 316.24 130.204 316.24 129.375H317.512C317.512 129.899 317.683 130.318 318.024 130.633C318.366 130.947 318.824 131.104 319.398 131.104C320.009 131.104 320.476 130.945 320.8 130.626C321.123 130.307 321.285 129.849 321.285 129.252C321.285 128.673 321.107 128.229 320.752 127.919C320.396 127.609 319.884 127.45 319.214 127.44H318.264V126.408Z" fill="black"/>
<path d="M34 254H33.5V254.5H34V254ZM490 254V254.5H490.5V254H490ZM490.354 216.646C490.158 216.451 489.842 216.451 489.646 216.646L486.464 219.828C486.269 220.024 486.269 220.34 486.464 220.536C486.66 220.731 486.976 220.731 487.172 220.536L490 217.707L492.828 220.536C493.024 220.731 493.34 220.731 493.536 220.536C493.731 220.34 493.731 220.024 493.536 219.828L490.354 216.646ZM33.5 217V254H34.5V217H33.5ZM34 254.5H490V253.5H34V254.5ZM490.5 254V217H489.5V254H490.5Z" fill="#424242"/>
<ellipse cx="282.813" cy="254" rx="12.2988" ry="13" fill="white"/>
<path d="M283.574 253.328H288.765V254.641H283.574V260.289H282.156V254.641H277.07V253.328H282.156V247.867H283.574V253.328Z" fill="black"/>
<path d="M58.5 197.5L123.5 132.5V1L58.5 66V197.5Z" fill="#FDEBDD"/>
<path d="M12 197.5H58.5V66H12V197.5Z" fill="#FDEBDD"/>
<path d="M58.5 66L123.5 1H77L12 66H58.5Z" fill="#FDEBDD"/>
<path d="M58.5 197.5H12V66M58.5 197.5L123.5 132.5V1M58.5 197.5V66M123.5 1L58.5 66M123.5 1H77L12 66M58.5 66H12" stroke="#424242"/>
<path d="M8.63379 129H7.78613V124.229H2.09863V129H1.25781V119.047H2.09863V123.518H7.78613V119.047H8.63379V129Z" fill="black"/>
<path d="M39.3057 207.896C39.1917 208.945 38.8158 209.747 38.1777 210.303C37.5443 210.859 36.6989 211.137 35.6416 211.137C34.9033 211.137 34.2493 210.952 33.6797 210.583C33.1146 210.214 32.6771 209.692 32.3672 209.018C32.0573 208.339 31.9001 207.564 31.8955 206.693V205.401C31.8955 204.517 32.0505 203.733 32.3604 203.05C32.6702 202.366 33.1146 201.84 33.6934 201.471C34.2767 201.097 34.9466 200.91 35.7031 200.91C36.7695 200.91 37.6104 201.2 38.2256 201.778C38.8454 202.353 39.2054 203.148 39.3057 204.164H38.458C38.2484 202.473 37.3301 201.628 35.7031 201.628C34.8008 201.628 34.0807 201.965 33.543 202.64C33.0098 203.314 32.7432 204.246 32.7432 205.436V206.652C32.7432 207.801 33.0029 208.717 33.5225 209.4C34.0465 210.084 34.7529 210.426 35.6416 210.426C36.5212 210.426 37.1842 210.216 37.6309 209.797C38.0775 209.373 38.3532 208.74 38.458 207.896H39.3057Z" fill="black"/>
<path d="M99.4506 172L100.755 172.883L99.985 171.568L96.3675 164.831L96.9074 164.298L103.579 168.018L104.889 168.819L104.027 167.479L100.2 161.046L100.813 160.441L105.993 169.314L105.419 169.881L98.3426 165.926L97.4709 165.404L97.9876 166.277L101.815 173.44L101.241 174.007L92.4378 168.713L93.0506 168.107L99.4506 172Z" fill="black"/>
<path d="M90 96.7959V111L99.7409 101.204V87L90 96.7959Z" fill="#FFC99F"/>
<path d="M90 96.7959V111M90 96.7959L99.7409 87M90 96.7959L184 101.204M90 111L99.7409 101.204M90 111L184 101.204M99.7409 101.204V87M99.7409 101.204H184M99.7409 87L184 101.204" stroke="#424242" stroke-width="0.5"/>
<path d="M338.5 197.5L403.5 132.5V1L338.5 66V197.5Z" fill="#FDEBDD"/>
<path d="M338.5 66L403.5 1H392L327 66H338.5Z" fill="#FDEBDD"/>
<path d="M327 197.5H338.5V66H327V197.5Z" fill="#FDEBDD"/>
<path d="M338.5 197.5H327V66M338.5 197.5L403.5 132.5V1M338.5 197.5V66M403.5 1L338.5 66M403.5 1H392L327 66M338.5 66H327" stroke="#424242"/>
<path d="M367 96.7959V111L376.741 101.204V87L367 96.7959Z" fill="#FFC99F"/>
<path d="M367 96.7959V111M367 96.7959L376.741 87M367 96.7959L461 101.204M367 111L376.741 101.204M367 111L461 101.204M376.741 101.204V87M376.741 101.204H461M376.741 87L461 101.204" stroke="#424242" stroke-width="0.5"/>
<path d="M217 104.5V119L227 109V94.5L217 104.5Z" fill="#FFC99F"/>
<path d="M227 94.5V109L237 99V84.5L227 94.5Z" fill="#FFC99F"/>
<path d="M237 84.5V99L247 89V74.5L237 84.5Z" fill="#FFC99F"/>
<path d="M217 90L217 104.5L227 94.5L227 80L217 90Z" fill="#FFC99F"/>
<path d="M227 80L227 94.5L237 84.5L237 70L227 80Z" fill="#FFC99F"/>
<path d="M237 70L237 84.5L247 74.5L247 60L237 70Z" fill="#FFC99F"/>
<path d="M217 119V133.5L227 123.5V109L217 119Z" fill="#FFC99F"/>
<path d="M227 109V123.5L237 113.5V99L227 109Z" fill="#FFC99F"/>
<path d="M237 99V113.5L247 103.5V89L237 99Z" fill="#FFC99F"/>
<path d="M217 104.5V119M217 104.5L227 94.5M217 104.5L217 90L227 80M217 119L227 109M217 119V133.5L227 123.5M227 109V94.5M227 109L237 99M227 109V123.5M227 94.5L237 84.5M227 94.5L227 80M237 99V84.5M237 99L247 89M237 99V113.5M237 84.5L247 74.5M237 84.5L237 70M247 89V74.5M247 89V103.5L237 113.5M247 74.5L247 60L237 70M227 80L237 70M227 123.5L237 113.5" stroke="#424242" stroke-width="0.5"/>
<path d="M217 90L323 99.5M323 99.5L247 60M323 99.5L217 133.5M323 99.5L247 103.5" stroke="#424242" stroke-width="0.5"/>
<path d="M198.5 197.5L263.5 132.5V1L198.5 66V197.5Z" fill="#FDEBDD"/>
<path d="M198.5 66L263.5 1H252L187 66H198.5Z" fill="#FDEBDD"/>
<path d="M187 197.5H198.5V66H187V197.5Z" fill="#FDEBDD"/>
<path d="M198.5 197.5H187V66M198.5 197.5L263.5 132.5V1M198.5 197.5V66M263.5 1L198.5 66M263.5 1H252L187 66M198.5 66H187" stroke="#424242"/>
<path d="M217 104.5V119L227 109V94.5L217 104.5Z" fill="#FFC99F"/>
<path d="M227 94.5V109L237 99V84.5L227 94.5Z" fill="#FFC99F"/>
<path d="M237 84.5V99L247 89V74.5L237 84.5Z" fill="#FFC99F"/>
<path d="M217 90L217 104.5L227 94.5L227 80L217 90Z" fill="#FFC99F"/>
<path d="M227 80L227 94.5L237 84.5L237 70L227 80Z" fill="#FFC99F"/>
<path d="M237 70L237 84.5L247 74.5L247 60L237 70Z" fill="#FFC99F"/>
<path d="M217 119V133.5L227 123.5V109L217 119Z" fill="#FFC99F"/>
<path d="M227 109V123.5L237 113.5V99L227 109Z" fill="#FFC99F"/>
<path d="M237 99V113.5L247 103.5V89L237 99Z" fill="#FFC99F"/>
<path d="M217 104.5V119M217 104.5L227 94.5M217 104.5L217 90L227 80M217 119L227 109M217 119V133.5L227 123.5M227 109V94.5M227 109L237 99M227 109V123.5M227 94.5L237 84.5M227 94.5L227 80M237 99V84.5M237 99L247 89M237 99V113.5M237 84.5L247 74.5M237 84.5L237 70M247 89V74.5M247 89V103.5L237 113.5M247 74.5L247 60L237 70M227 80L237 70M227 123.5L237 113.5" stroke="#424242" stroke-width="0.5"/>
<path d="M217 90L323 99.5M323 99.5L247 60M323 99.5L217 133.5M323 99.5L247 103.5" stroke="#424242" stroke-width="0.5"/>
<path d="M258.532 268.738C258.341 268.706 258.133 268.69 257.91 268.69C257.081 268.69 256.518 269.044 256.222 269.75V275H254.957V267.604H256.188L256.208 268.458C256.623 267.797 257.211 267.467 257.972 267.467C258.218 267.467 258.405 267.499 258.532 267.562V268.738ZM262.634 275.137C261.631 275.137 260.815 274.809 260.187 274.152C259.558 273.492 259.243 272.61 259.243 271.507V271.274C259.243 270.541 259.382 269.887 259.66 269.312C259.943 268.734 260.335 268.283 260.836 267.959C261.342 267.631 261.889 267.467 262.477 267.467C263.438 267.467 264.186 267.784 264.719 268.417C265.252 269.05 265.519 269.957 265.519 271.138V271.664H260.508C260.526 272.393 260.738 272.983 261.144 273.435C261.554 273.881 262.073 274.104 262.702 274.104C263.149 274.104 263.527 274.013 263.837 273.831C264.147 273.649 264.418 273.407 264.65 273.106L265.423 273.708C264.803 274.66 263.873 275.137 262.634 275.137ZM262.477 268.506C261.966 268.506 261.538 268.693 261.191 269.066C260.845 269.436 260.631 269.955 260.549 270.625H264.254V270.529C264.217 269.887 264.044 269.39 263.734 269.039C263.424 268.684 263.005 268.506 262.477 268.506ZM271.295 273.038C271.295 272.696 271.165 272.432 270.905 272.245C270.65 272.054 270.201 271.89 269.559 271.753C268.921 271.616 268.412 271.452 268.034 271.261C267.66 271.069 267.382 270.841 267.2 270.577C267.022 270.313 266.934 269.998 266.934 269.634C266.934 269.028 267.189 268.515 267.699 268.096C268.214 267.676 268.87 267.467 269.668 267.467C270.507 267.467 271.186 267.683 271.705 268.116C272.229 268.549 272.491 269.103 272.491 269.777H271.22C271.22 269.431 271.072 269.132 270.775 268.882C270.484 268.631 270.115 268.506 269.668 268.506C269.208 268.506 268.848 268.606 268.588 268.807C268.328 269.007 268.198 269.269 268.198 269.593C268.198 269.898 268.319 270.128 268.561 270.283C268.802 270.438 269.237 270.586 269.866 270.728C270.5 270.869 271.012 271.037 271.404 271.233C271.796 271.429 272.086 271.666 272.272 271.944C272.464 272.218 272.56 272.553 272.56 272.949C272.56 273.61 272.295 274.141 271.767 274.542C271.238 274.938 270.552 275.137 269.709 275.137C269.117 275.137 268.592 275.032 268.137 274.822C267.681 274.613 267.323 274.321 267.063 273.947C266.808 273.569 266.681 273.161 266.681 272.724H267.945C267.968 273.147 268.137 273.485 268.451 273.735C268.77 273.981 269.189 274.104 269.709 274.104C270.188 274.104 270.57 274.009 270.857 273.817C271.149 273.621 271.295 273.362 271.295 273.038ZM275.581 275H274.316V267.604H275.581V275ZM274.214 265.642C274.214 265.437 274.275 265.263 274.398 265.122C274.526 264.981 274.713 264.91 274.959 264.91C275.205 264.91 275.392 264.981 275.52 265.122C275.647 265.263 275.711 265.437 275.711 265.642C275.711 265.847 275.647 266.018 275.52 266.154C275.392 266.291 275.205 266.359 274.959 266.359C274.713 266.359 274.526 266.291 274.398 266.154C274.275 266.018 274.214 265.847 274.214 265.642ZM277.304 271.24C277.304 270.105 277.573 269.194 278.11 268.506C278.648 267.813 279.352 267.467 280.223 267.467C281.089 267.467 281.774 267.763 282.28 268.355V264.5H283.545V275H282.383L282.321 274.207C281.815 274.827 281.111 275.137 280.209 275.137C279.352 275.137 278.653 274.786 278.11 274.084C277.573 273.382 277.304 272.466 277.304 271.336V271.24ZM278.568 271.384C278.568 272.222 278.742 272.879 279.088 273.353C279.434 273.826 279.913 274.063 280.523 274.063C281.326 274.063 281.911 273.703 282.28 272.983V269.586C281.902 268.889 281.321 268.54 280.537 268.54C279.917 268.54 279.434 268.779 279.088 269.258C278.742 269.736 278.568 270.445 278.568 271.384ZM290.08 274.269C289.588 274.847 288.866 275.137 287.913 275.137C287.125 275.137 286.523 274.909 286.108 274.453C285.698 273.993 285.491 273.314 285.486 272.416V267.604H286.751V272.382C286.751 273.503 287.207 274.063 288.118 274.063C289.084 274.063 289.727 273.703 290.046 272.983V267.604H291.311V275H290.107L290.08 274.269ZM297.805 275C297.732 274.854 297.673 274.594 297.627 274.221C297.039 274.831 296.337 275.137 295.521 275.137C294.792 275.137 294.193 274.932 293.724 274.521C293.259 274.107 293.026 273.583 293.026 272.949C293.026 272.179 293.318 271.582 293.901 271.158C294.489 270.73 295.314 270.516 296.376 270.516H297.606V269.935C297.606 269.493 297.474 269.142 297.21 268.882C296.946 268.618 296.556 268.485 296.041 268.485C295.59 268.485 295.212 268.599 294.906 268.827C294.601 269.055 294.448 269.331 294.448 269.654H293.177C293.177 269.285 293.307 268.93 293.566 268.588C293.831 268.242 294.186 267.968 294.633 267.768C295.084 267.567 295.578 267.467 296.116 267.467C296.968 267.467 297.636 267.681 298.119 268.109C298.602 268.533 298.853 269.119 298.871 269.866V273.271C298.871 273.95 298.958 274.49 299.131 274.891V275H297.805ZM295.706 274.036C296.103 274.036 296.479 273.934 296.834 273.729C297.189 273.523 297.447 273.257 297.606 272.929V271.411H296.615C295.066 271.411 294.291 271.865 294.291 272.771C294.291 273.168 294.423 273.478 294.688 273.701C294.952 273.924 295.291 274.036 295.706 274.036ZM302.228 275H300.963V264.5H302.228V275Z" fill="black"/>
</svg>
