<svg width="354" height="221" viewBox="0 0 354 221" fill="none" xmlns="http://www.w3.org/2000/svg">
<rect width="354" height="221" fill="white"/>
<path d="M228.5 197.5L293.5 132.5V1L228.5 66V197.5Z" fill="#FDEBDD"/>
<path d="M182 197.5H228.5V66H182V197.5Z" fill="#FDEBDD"/>
<path d="M228.5 66L293.5 1H247L182 66H228.5Z" fill="#FDEBDD"/>
<path d="M228.5 197.5H182V66M228.5 197.5L293.5 132.5V1M228.5 197.5V66M293.5 1L228.5 66M293.5 1H247L182 66M228.5 66H182" stroke="#424242"/>
<path d="M259 101.796V116L268.741 106.204V92L259 101.796Z" fill="#FFC99F"/>
<path d="M259 101.796V116M259 101.796L268.741 92M259 101.796L353 106.204M259 116L268.741 106.204M259 116L353 106.204M268.741 106.204V92M268.741 106.204H353M268.741 92L353 106.204" stroke="#424242" stroke-width="0.5"/>
<path d="M57.5 198.5L122.5 133.5V2L57.5 67V198.5Z" fill="#FDEBDD"/>
<path d="M11 198.5H57.5V67H11V198.5Z" fill="#FDEBDD"/>
<path d="M57.5 67L122.5 2H76L11 67H57.5Z" fill="#FDEBDD"/>
<path d="M57.5 198.5H11V67M57.5 198.5L122.5 133.5V2M57.5 198.5V67M122.5 2L57.5 67M122.5 2H76L11 67M57.5 67H11" stroke="#424242"/>
<path d="M73 112.5V127L83 117V102.5L73 112.5Z" fill="#FFC99F"/>
<path d="M83 102.5V117L93 107V92.5L83 102.5Z" fill="#FFC99F"/>
<path d="M93 92.5V107L103 97V82.5L93 92.5Z" fill="#FFC99F"/>
<path d="M73 98L73 112.5L83 102.5L83 88L73 98Z" fill="#FFC99F"/>
<path d="M83 88L83 102.5L93 92.5L93 78L83 88Z" fill="#FFC99F"/>
<path d="M93 78L93 92.5L103 82.5L103 68L93 78Z" fill="#FFC99F"/>
<path d="M73 127V141.5L83 131.5V117L73 127Z" fill="#FFC99F"/>
<path d="M83 117V131.5L93 121.5V107L83 117Z" fill="#FFC99F"/>
<path d="M93 107V121.5L103 111.5V97L93 107Z" fill="#FFC99F"/>
<path d="M73 112.5V127M73 112.5L83 102.5M73 112.5L73 98L83 88M73 127L83 117M73 127V141.5L83 131.5M83 117V102.5M83 117L93 107M83 117V131.5M83 102.5L93 92.5M83 102.5L83 88M93 107V92.5M93 107L103 97M93 107V121.5M93 92.5L103 82.5M93 92.5L93 78M103 97V82.5M103 97V111.5L93 121.5M103 82.5L103 68L93 78M83 88L93 78M83 131.5L93 121.5" stroke="#424242" stroke-width="0.5"/>
<path d="M73 112.5V127L83 117V102.5L73 112.5Z" fill="#FFC99F"/>
<path d="M83 102.5V117L93 107V92.5L83 102.5Z" fill="#FFC99F"/>
<path d="M93 92.5V107L103 97V82.5L93 92.5Z" fill="#FFC99F"/>
<path d="M73 98L73 112.5L83 102.5L83 88L73 98Z" fill="#FFC99F"/>
<path d="M83 88L83 102.5L93 92.5L93 78L83 88Z" fill="#FFC99F"/>
<path d="M93 78L93 92.5L103 82.5L103 68L93 78Z" fill="#FFC99F"/>
<path d="M73 127V141.5L83 131.5V117L73 127Z" fill="#FFC99F"/>
<path d="M83 117V131.5L93 121.5V107L83 117Z" fill="#FFC99F"/>
<path d="M93 107V121.5L103 111.5V97L93 107Z" fill="#FFC99F"/>
<path d="M73 112.5V127M73 112.5L83 102.5M73 112.5L73 98L83 88M73 127L83 117M73 127V141.5L83 131.5M83 117V102.5M83 117L93 107M83 117V131.5M83 102.5L93 92.5M83 102.5L83 88M93 107V92.5M93 107L103 97M93 107V121.5M93 92.5L103 82.5M93 92.5L93 78M103 97V82.5M103 97V111.5L93 121.5M103 82.5L103 68L93 78M83 88L93 78M83 131.5L93 121.5" stroke="#424242" stroke-width="0.5"/>
<path d="M73 98L179 107.5M179 107.5L103 68M179 107.5L73 141.5M179 107.5L103 111.5" stroke="#424242" stroke-width="0.5"/>
<path d="M8.63379 130H7.78613V125.229H2.09863V130H1.25781V120.047H2.09863V124.518H7.78613V120.047H8.63379V130Z" fill="black"/>
<path d="M34.3057 207.896C34.1917 208.945 33.8158 209.747 33.1777 210.303C32.5443 210.859 31.6989 211.137 30.6416 211.137C29.9033 211.137 29.2493 210.952 28.6797 210.583C28.1146 210.214 27.6771 209.692 27.3672 209.018C27.0573 208.339 26.9001 207.564 26.8955 206.693V205.401C26.8955 204.517 27.0505 203.733 27.3604 203.05C27.6702 202.366 28.1146 201.84 28.6934 201.471C29.2767 201.097 29.9466 200.91 30.7031 200.91C31.7695 200.91 32.6104 201.2 33.2256 201.778C33.8454 202.353 34.2054 203.148 34.3057 204.164H33.458C33.2484 202.473 32.3301 201.628 30.7031 201.628C29.8008 201.628 29.0807 201.965 28.543 202.64C28.0098 203.314 27.7432 204.246 27.7432 205.436V206.652C27.7432 207.801 28.0029 208.717 28.5225 209.4C29.0465 210.084 29.7529 210.426 30.6416 210.426C31.5212 210.426 32.1842 210.216 32.6309 209.797C33.0775 209.373 33.3532 208.74 33.458 207.896H34.3057Z" fill="black"/>
<path d="M97.4506 173L98.7551 173.883L97.985 172.568L94.3675 165.831L94.9074 165.298L101.579 169.018L102.889 169.819L102.027 168.479L98.2 162.046L98.8128 161.441L103.993 170.314L103.419 170.881L96.3426 166.926L95.4709 166.404L95.9876 167.277L99.8151 174.44L99.2412 175.007L90.4378 169.713L91.0506 169.107L97.4506 173Z" fill="black"/>
<path d="M211.306 206.896C211.192 207.945 210.816 208.747 210.178 209.303C209.544 209.859 208.699 210.137 207.642 210.137C206.903 210.137 206.249 209.952 205.68 209.583C205.115 209.214 204.677 208.692 204.367 208.018C204.057 207.339 203.9 206.564 203.896 205.693V204.401C203.896 203.517 204.05 202.733 204.36 202.05C204.67 201.366 205.115 200.84 205.693 200.471C206.277 200.097 206.947 199.91 207.703 199.91C208.77 199.91 209.61 200.2 210.226 200.778C210.845 201.353 211.205 202.148 211.306 203.164H210.458C210.248 201.473 209.33 200.628 207.703 200.628C206.801 200.628 206.081 200.965 205.543 201.64C205.01 202.314 204.743 203.246 204.743 204.436V205.652C204.743 206.801 205.003 207.717 205.522 208.4C206.047 209.084 206.753 209.426 207.642 209.426C208.521 209.426 209.184 209.216 209.631 208.797C210.077 208.373 210.353 207.74 210.458 206.896H211.306Z" fill="black"/>
<path d="M299.924 137.104C300.375 137.104 300.769 136.968 301.106 136.694C301.444 136.421 301.631 136.079 301.667 135.669H302.863C302.84 136.093 302.695 136.496 302.426 136.879C302.157 137.262 301.797 137.567 301.346 137.795C300.899 138.023 300.425 138.137 299.924 138.137C298.917 138.137 298.115 137.802 297.518 137.132C296.925 136.457 296.629 135.537 296.629 134.37V134.158C296.629 133.438 296.761 132.798 297.025 132.237C297.29 131.677 297.668 131.242 298.16 130.932C298.657 130.622 299.243 130.467 299.917 130.467C300.746 130.467 301.435 130.715 301.981 131.212C302.533 131.709 302.827 132.354 302.863 133.146H301.667C301.631 132.668 301.448 132.276 301.12 131.971C300.797 131.661 300.396 131.506 299.917 131.506C299.274 131.506 298.775 131.738 298.42 132.203C298.069 132.663 297.894 133.331 297.894 134.206V134.445C297.894 135.298 298.069 135.954 298.42 136.414C298.771 136.874 299.272 137.104 299.924 137.104ZM303.95 134.233C303.95 133.509 304.091 132.857 304.374 132.278C304.661 131.7 305.058 131.253 305.563 130.938C306.074 130.624 306.655 130.467 307.307 130.467C308.314 130.467 309.127 130.815 309.747 131.513C310.371 132.21 310.684 133.137 310.684 134.295V134.384C310.684 135.104 310.545 135.751 310.267 136.325C309.993 136.895 309.599 137.339 309.084 137.658C308.574 137.977 307.986 138.137 307.32 138.137C306.318 138.137 305.504 137.788 304.88 137.091C304.26 136.394 303.95 135.471 303.95 134.322V134.233ZM305.222 134.384C305.222 135.204 305.411 135.863 305.789 136.359C306.172 136.856 306.682 137.104 307.32 137.104C307.963 137.104 308.473 136.854 308.852 136.353C309.23 135.847 309.419 135.14 309.419 134.233C309.419 133.422 309.225 132.766 308.838 132.265C308.455 131.759 307.945 131.506 307.307 131.506C306.682 131.506 306.179 131.754 305.796 132.251C305.413 132.748 305.222 133.459 305.222 134.384ZM313.466 130.604L313.507 131.533C314.072 130.822 314.81 130.467 315.722 130.467C317.285 130.467 318.073 131.349 318.087 133.112V138H316.822V133.105C316.818 132.572 316.695 132.178 316.453 131.923C316.216 131.668 315.845 131.54 315.339 131.54C314.929 131.54 314.569 131.649 314.259 131.868C313.949 132.087 313.707 132.374 313.534 132.729V138H312.27V130.604H313.466ZM322.435 136.284L324.267 130.604H325.559L322.906 138H321.942L319.263 130.604H320.555L322.435 136.284ZM334.274 138H333.003V129.571L330.453 130.508V129.359L334.076 127.999H334.274V138ZM340.591 133.304L342.231 130.604H343.708L341.288 134.261L343.783 138H342.32L340.611 135.231L338.902 138H337.433L339.928 134.261L337.508 130.604H338.971L340.591 133.304ZM349.081 138H347.81V129.571L345.26 130.508V129.359L348.883 127.999H349.081V138Z" fill="black"/>
<path d="M126.924 137.104C127.375 137.104 127.769 136.968 128.106 136.694C128.444 136.421 128.631 136.079 128.667 135.669H129.863C129.84 136.093 129.695 136.496 129.426 136.879C129.157 137.262 128.797 137.567 128.346 137.795C127.899 138.023 127.425 138.137 126.924 138.137C125.917 138.137 125.115 137.802 124.518 137.132C123.925 136.457 123.629 135.537 123.629 134.37V134.158C123.629 133.438 123.761 132.798 124.025 132.237C124.29 131.677 124.668 131.242 125.16 130.932C125.657 130.622 126.243 130.467 126.917 130.467C127.746 130.467 128.435 130.715 128.981 131.212C129.533 131.709 129.827 132.354 129.863 133.146H128.667C128.631 132.668 128.448 132.276 128.12 131.971C127.797 131.661 127.396 131.506 126.917 131.506C126.274 131.506 125.775 131.738 125.42 132.203C125.069 132.663 124.894 133.331 124.894 134.206V134.445C124.894 135.298 125.069 135.954 125.42 136.414C125.771 136.874 126.272 137.104 126.924 137.104ZM130.95 134.233C130.95 133.509 131.091 132.857 131.374 132.278C131.661 131.7 132.058 131.253 132.563 130.938C133.074 130.624 133.655 130.467 134.307 130.467C135.314 130.467 136.127 130.815 136.747 131.513C137.371 132.21 137.684 133.137 137.684 134.295V134.384C137.684 135.104 137.545 135.751 137.267 136.325C136.993 136.895 136.599 137.339 136.084 137.658C135.574 137.977 134.986 138.137 134.32 138.137C133.318 138.137 132.504 137.788 131.88 137.091C131.26 136.394 130.95 135.471 130.95 134.322V134.233ZM132.222 134.384C132.222 135.204 132.411 135.863 132.789 136.359C133.172 136.856 133.682 137.104 134.32 137.104C134.963 137.104 135.473 136.854 135.852 136.353C136.23 135.847 136.419 135.14 136.419 134.233C136.419 133.422 136.225 132.766 135.838 132.265C135.455 131.759 134.945 131.506 134.307 131.506C133.682 131.506 133.179 131.754 132.796 132.251C132.413 132.748 132.222 133.459 132.222 134.384ZM140.466 130.604L140.507 131.533C141.072 130.822 141.81 130.467 142.722 130.467C144.285 130.467 145.073 131.349 145.087 133.112V138H143.822V133.105C143.818 132.572 143.695 132.178 143.453 131.923C143.216 131.668 142.845 131.54 142.339 131.54C141.929 131.54 141.569 131.649 141.259 131.868C140.949 132.087 140.707 132.374 140.534 132.729V138H139.27V130.604H140.466ZM149.435 136.284L151.267 130.604H152.559L149.906 138H148.942L146.263 130.604H147.555L149.435 136.284ZM158.957 132.408H159.907C160.504 132.399 160.974 132.242 161.315 131.937C161.657 131.631 161.828 131.219 161.828 130.699C161.828 129.533 161.247 128.949 160.085 128.949C159.538 128.949 159.101 129.106 158.772 129.421C158.449 129.731 158.287 130.143 158.287 130.658H157.022C157.022 129.87 157.31 129.216 157.884 128.696C158.463 128.172 159.196 127.91 160.085 127.91C161.024 127.91 161.76 128.159 162.293 128.655C162.826 129.152 163.093 129.842 163.093 130.727C163.093 131.16 162.951 131.579 162.669 131.984C162.391 132.39 162.01 132.693 161.527 132.894C162.074 133.067 162.496 133.354 162.792 133.755C163.093 134.156 163.243 134.646 163.243 135.225C163.243 136.118 162.951 136.826 162.368 137.351C161.785 137.875 161.026 138.137 160.092 138.137C159.158 138.137 158.396 137.884 157.809 137.378C157.225 136.872 156.934 136.204 156.934 135.375H158.205C158.205 135.899 158.376 136.318 158.718 136.633C159.06 136.947 159.518 137.104 160.092 137.104C160.702 137.104 161.17 136.945 161.493 136.626C161.817 136.307 161.979 135.849 161.979 135.252C161.979 134.673 161.801 134.229 161.445 133.919C161.09 133.609 160.577 133.45 159.907 133.44H158.957V132.408ZM167.591 133.304L169.231 130.604H170.708L168.288 134.261L170.783 138H169.32L167.611 135.231L165.902 138H164.433L166.928 134.261L164.508 130.604H165.971L167.591 133.304ZM173.764 132.408H174.714C175.311 132.399 175.78 132.242 176.122 131.937C176.464 131.631 176.635 131.219 176.635 130.699C176.635 129.533 176.054 128.949 174.892 128.949C174.345 128.949 173.907 129.106 173.579 129.421C173.256 129.731 173.094 130.143 173.094 130.658H171.829C171.829 129.87 172.116 129.216 172.69 128.696C173.269 128.172 174.003 127.91 174.892 127.91C175.83 127.91 176.566 128.159 177.1 128.655C177.633 129.152 177.899 129.842 177.899 130.727C177.899 131.16 177.758 131.579 177.476 131.984C177.198 132.39 176.817 132.693 176.334 132.894C176.881 133.067 177.302 133.354 177.599 133.755C177.899 134.156 178.05 134.646 178.05 135.225C178.05 136.118 177.758 136.826 177.175 137.351C176.591 137.875 175.833 138.137 174.898 138.137C173.964 138.137 173.203 137.884 172.615 137.378C172.032 136.872 171.74 136.204 171.74 135.375H173.012C173.012 135.899 173.183 136.318 173.524 136.633C173.866 136.947 174.324 137.104 174.898 137.104C175.509 137.104 175.976 136.945 176.3 136.626C176.623 136.307 176.785 135.849 176.785 135.252C176.785 134.673 176.607 134.229 176.252 133.919C175.896 133.609 175.384 133.45 174.714 133.44H173.764V132.408Z" fill="black"/>
<path d="M11 198.5H15.5V67H11V198.5Z" fill="#FFD8B9"/>
<path d="M15.5 67L48 34.5L80.5 2H76L11 67H15.5Z" fill="#FFD8B9"/>
<path d="M15.5 67H11M15.5 67V198.5H11V67M15.5 67L48 34.5L80.5 2H76L11 67" stroke="#424242"/>
<path d="M15 198.5H19.5V67H15V198.5Z" fill="#EFE7E0"/>
<path d="M15 198.5H19.5V67H15V198.5Z" fill="#EFE7E0"/>
<path d="M19.5 67L52 34.5L84.5 2H80L15 67H19.5Z" fill="#EFE7E0"/>
<path d="M19.5 67L52 34.5L84.5 2H80L15 67H19.5Z" fill="#EFE7E0"/>
<path d="M19.5 67H15M19.5 67V198.5H15V67M19.5 67L52 34.5L84.5 2H80L15 67" stroke="#424242"/>
<path d="M19 198.5H23.5V67H19V198.5Z" fill="#EFE7E0"/>
<path d="M19 198.5H23.5V67H19V198.5Z" fill="#F9BA89"/>
<path d="M19 198.5H23.5V67H19V198.5Z" fill="#F9BA89"/>
<path d="M19 198.5H23.5V67H19V198.5Z" fill="#F9BA89"/>
<path d="M23.5 67L56 34.5L88.5 2H84L19 67H23.5Z" fill="#EFE7E0"/>
<path d="M23.5 67L56 34.5L88.5 2H84L19 67H23.5Z" fill="#F9BA89"/>
<path d="M23.5 67L56 34.5L88.5 2H84L19 67H23.5Z" fill="#F9BA89"/>
<path d="M23.5 67L56 34.5L88.5 2H84L19 67H23.5Z" fill="#F9BA89"/>
<path d="M23.5 67H19M23.5 67V198.5H19V67M23.5 67L56 34.5L88.5 2H84L19 67" stroke="#424242"/>
<path d="M23 198.5H27.5V67H23V198.5Z" fill="#EFE7E0"/>
<path d="M23 198.5H27.5V67H23V198.5Z" fill="#F9BA89"/>
<path d="M23 198.5H27.5V67H23V198.5Z" fill="#F9BA89"/>
<path d="M23 198.5H27.5V67H23V198.5Z" fill="#FEEBDD"/>
<path d="M27.5 67L60 34.5L92.5 2H88L23 67H27.5Z" fill="#EFE7E0"/>
<path d="M27.5 67L60 34.5L92.5 2H88L23 67H27.5Z" fill="#F9BA89"/>
<path d="M27.5 67L60 34.5L92.5 2H88L23 67H27.5Z" fill="#F9BA89"/>
<path d="M27.5 67L60 34.5L92.5 2H88L23 67H27.5Z" fill="#FEEBDD"/>
<path d="M27.5 67H23M27.5 67V198.5H23V67M27.5 67L60 34.5L92.5 2H88L23 67" stroke="#424242"/>
<path d="M27 198.5H31.5V67H27V198.5Z" fill="#EFE7E0"/>
<path d="M27 198.5H31.5V67H27V198.5Z" fill="#F9BA89"/>
<path d="M27 198.5H31.5V67H27V198.5Z" fill="#F9BA89"/>
<path d="M27 198.5H31.5V67H27V198.5Z" fill="#E3CDBC"/>
<path d="M27 198.5H31.5V67H27V198.5Z" fill="#E3CDBC"/>
<path d="M27 198.5H31.5V67H27V198.5Z" fill="#E3CDBC"/>
<path d="M27 198.5H31.5V67H27V198.5Z" fill="#E3CDBC"/>
<path d="M31.5 67L64 34.5L96.5 2H92L27 67H31.5Z" fill="#EFE7E0"/>
<path d="M31.5 67L64 34.5L96.5 2H92L27 67H31.5Z" fill="#F9BA89"/>
<path d="M31.5 67L64 34.5L96.5 2H92L27 67H31.5Z" fill="#F9BA89"/>
<path d="M31.5 67L64 34.5L96.5 2H92L27 67H31.5Z" fill="#E3CDBC"/>
<path d="M31.5 67L64 34.5L96.5 2H92L27 67H31.5Z" fill="#E3CDBC"/>
<path d="M31.5 67L64 34.5L96.5 2H92L27 67H31.5Z" fill="#E3CDBC"/>
<path d="M31.5 67L64 34.5L96.5 2H92L27 67H31.5Z" fill="#E3CDBC"/>
<path d="M31.5 67H27M31.5 67V198.5H27V67M31.5 67L64 34.5L96.5 2H92L27 67" stroke="#424242"/>
<path d="M31 198.5H35.5V67H31V198.5Z" fill="#EFE7E0"/>
<path d="M31 198.5H35.5V67H31V198.5Z" fill="#F9BA89"/>
<path d="M31 198.5H35.5V67H31V198.5Z" fill="#F9BA89"/>
<path d="M31 198.5H35.5V67H31V198.5Z" fill="#E3CDBC"/>
<path d="M31 198.5H35.5V67H31V198.5Z" fill="#E3CDBC"/>
<path d="M31 198.5H35.5V67H31V198.5Z" fill="#E3CDBC"/>
<path d="M31 198.5H35.5V67H31V198.5Z" fill="#FDB176"/>
<path d="M31 198.5H35.5V67H31V198.5Z" fill="#FDB176"/>
<path d="M31 198.5H35.5V67H31V198.5Z" fill="#FDB176"/>
<path d="M35.5 67L68 34.5L100.5 2H96L31 67H35.5Z" fill="#EFE7E0"/>
<path d="M35.5 67L68 34.5L100.5 2H96L31 67H35.5Z" fill="#F9BA89"/>
<path d="M35.5 67L68 34.5L100.5 2H96L31 67H35.5Z" fill="#F9BA89"/>
<path d="M35.5 67L68 34.5L100.5 2H96L31 67H35.5Z" fill="#E3CDBC"/>
<path d="M35.5 67L68 34.5L100.5 2H96L31 67H35.5Z" fill="#E3CDBC"/>
<path d="M35.5 67L68 34.5L100.5 2H96L31 67H35.5Z" fill="#E3CDBC"/>
<path d="M35.5 67L68 34.5L100.5 2H96L31 67H35.5Z" fill="#FDB176"/>
<path d="M35.5 67L68 34.5L100.5 2H96L31 67H35.5Z" fill="#FDB176"/>
<path d="M35.5 67L68 34.5L100.5 2H96L31 67H35.5Z" fill="#FDB176"/>
<path d="M35.5 67H31M35.5 67V198.5H31V67M35.5 67L68 34.5L100.5 2H96L31 67" stroke="#424242"/>
<path d="M35 198.5H39.5V67H35V198.5Z" fill="#EFE7E0"/>
<path d="M35 198.5H39.5V67H35V198.5Z" fill="#F9BA89"/>
<path d="M35 198.5H39.5V67H35V198.5Z" fill="#F9BA89"/>
<path d="M35 198.5H39.5V67H35V198.5Z" fill="#E3CDBC"/>
<path d="M35 198.5H39.5V67H35V198.5Z" fill="#E3CDBC"/>
<path d="M35 198.5H39.5V67H35V198.5Z" fill="#E3CDBC"/>
<path d="M35 198.5H39.5V67H35V198.5Z" fill="#FDB176"/>
<path d="M35 198.5H39.5V67H35V198.5Z" fill="#FDB176"/>
<path d="M35 198.5H39.5V67H35V198.5Z" fill="#FFF8F2"/>
<path d="M39.5 67L72 34.5L104.5 2H100L35 67H39.5Z" fill="#EFE7E0"/>
<path d="M39.5 67L72 34.5L104.5 2H100L35 67H39.5Z" fill="#F9BA89"/>
<path d="M39.5 67L72 34.5L104.5 2H100L35 67H39.5Z" fill="#F9BA89"/>
<path d="M39.5 67L72 34.5L104.5 2H100L35 67H39.5Z" fill="#E3CDBC"/>
<path d="M39.5 67L72 34.5L104.5 2H100L35 67H39.5Z" fill="#E3CDBC"/>
<path d="M39.5 67L72 34.5L104.5 2H100L35 67H39.5Z" fill="#E3CDBC"/>
<path d="M39.5 67L72 34.5L104.5 2H100L35 67H39.5Z" fill="#FDB176"/>
<path d="M39.5 67L72 34.5L104.5 2H100L35 67H39.5Z" fill="#FDB176"/>
<path d="M39.5 67L72 34.5L104.5 2H100L35 67H39.5Z" fill="#FFF8F2"/>
<path d="M39.5 67H35M39.5 67V198.5H35V67M39.5 67L72 34.5L104.5 2H100L35 67" stroke="#424242"/>
<path d="M40 198.5H44.5V67H40V198.5Z" fill="#EFE7E0"/>
<path d="M40 198.5H44.5V67H40V198.5Z" fill="#F9BA89"/>
<path d="M40 198.5H44.5V67H40V198.5Z" fill="#F9BA89"/>
<path d="M40 198.5H44.5V67H40V198.5Z" fill="#FEEBDD"/>
<path d="M44.5 67L77 34.5L109.5 2H105L40 67H44.5Z" fill="#EFE7E0"/>
<path d="M44.5 67L77 34.5L109.5 2H105L40 67H44.5Z" fill="#F9BA89"/>
<path d="M44.5 67L77 34.5L109.5 2H105L40 67H44.5Z" fill="#F9BA89"/>
<path d="M44.5 67L77 34.5L109.5 2H105L40 67H44.5Z" fill="#FEEBDD"/>
<path d="M44.5 67H40M44.5 67V198.5H40V67M44.5 67L77 34.5L109.5 2H105L40 67" stroke="#424242"/>
<path d="M44 198.5H48.5V67H44V198.5Z" fill="#EFE7E0"/>
<path d="M44 198.5H48.5V67H44V198.5Z" fill="#F9BA89"/>
<path d="M44 198.5H48.5V67H44V198.5Z" fill="#F9BA89"/>
<path d="M44 198.5H48.5V67H44V198.5Z" fill="#E3CDBC"/>
<path d="M44 198.5H48.5V67H44V198.5Z" fill="#E3CDBC"/>
<path d="M44 198.5H48.5V67H44V198.5Z" fill="#E3CDBC"/>
<path d="M44 198.5H48.5V67H44V198.5Z" fill="#E3CDBC"/>
<path d="M48.5 67L81 34.5L113.5 2H109L44 67H48.5Z" fill="#EFE7E0"/>
<path d="M48.5 67L81 34.5L113.5 2H109L44 67H48.5Z" fill="#F9BA89"/>
<path d="M48.5 67L81 34.5L113.5 2H109L44 67H48.5Z" fill="#F9BA89"/>
<path d="M48.5 67L81 34.5L113.5 2H109L44 67H48.5Z" fill="#E3CDBC"/>
<path d="M48.5 67L81 34.5L113.5 2H109L44 67H48.5Z" fill="#E3CDBC"/>
<path d="M48.5 67L81 34.5L113.5 2H109L44 67H48.5Z" fill="#E3CDBC"/>
<path d="M48.5 67L81 34.5L113.5 2H109L44 67H48.5Z" fill="#E3CDBC"/>
<path d="M48.5 67H44M48.5 67V198.5H44V67M48.5 67L81 34.5L113.5 2H109L44 67" stroke="#424242"/>
<path d="M48 198.5H52.5V67H48V198.5Z" fill="#EFE7E0"/>
<path d="M48 198.5H52.5V67H48V198.5Z" fill="#F9BA89"/>
<path d="M48 198.5H52.5V67H48V198.5Z" fill="#F9BA89"/>
<path d="M48 198.5H52.5V67H48V198.5Z" fill="#E3CDBC"/>
<path d="M48 198.5H52.5V67H48V198.5Z" fill="#E3CDBC"/>
<path d="M48 198.5H52.5V67H48V198.5Z" fill="#E3CDBC"/>
<path d="M48 198.5H52.5V67H48V198.5Z" fill="#FDB176"/>
<path d="M48 198.5H52.5V67H48V198.5Z" fill="#FDB176"/>
<path d="M48 198.5H52.5V67H48V198.5Z" fill="#FDB176"/>
<path d="M52.5 67L85 34.5L117.5 2H113L48 67H52.5Z" fill="#EFE7E0"/>
<path d="M52.5 67L85 34.5L117.5 2H113L48 67H52.5Z" fill="#F9BA89"/>
<path d="M52.5 67L85 34.5L117.5 2H113L48 67H52.5Z" fill="#F9BA89"/>
<path d="M52.5 67L85 34.5L117.5 2H113L48 67H52.5Z" fill="#E3CDBC"/>
<path d="M52.5 67L85 34.5L117.5 2H113L48 67H52.5Z" fill="#E3CDBC"/>
<path d="M52.5 67L85 34.5L117.5 2H113L48 67H52.5Z" fill="#E3CDBC"/>
<path d="M52.5 67L85 34.5L117.5 2H113L48 67H52.5Z" fill="#FDB176"/>
<path d="M52.5 67L85 34.5L117.5 2H113L48 67H52.5Z" fill="#FDB176"/>
<path d="M52.5 67L85 34.5L117.5 2H113L48 67H52.5Z" fill="#FDB176"/>
<path d="M52.5 67H48M52.5 67V198.5H48V67M52.5 67L85 34.5L117.5 2H113L48 67" stroke="#424242"/>
<path d="M52 198.5H56.5V67H52V198.5Z" fill="#EFE7E0"/>
<path d="M52 198.5H56.5V67H52V198.5Z" fill="#F9BA89"/>
<path d="M52 198.5H56.5V67H52V198.5Z" fill="#F9BA89"/>
<path d="M52 198.5H56.5V67H52V198.5Z" fill="#E3CDBC"/>
<path d="M52 198.5H56.5V67H52V198.5Z" fill="#E3CDBC"/>
<path d="M52 198.5H56.5V67H52V198.5Z" fill="#E3CDBC"/>
<path d="M52 198.5H56.5V67H52V198.5Z" fill="#FDB176"/>
<path d="M52 198.5H56.5V67H52V198.5Z" fill="#FDB176"/>
<path d="M52 198.5H56.5V67H52V198.5Z" fill="#FFF8F2"/>
<path d="M56.5 67L89 34.5L121.5 2H117L52 67H56.5Z" fill="#EFE7E0"/>
<path d="M56.5 67L89 34.5L121.5 2H117L52 67H56.5Z" fill="#F9BA89"/>
<path d="M56.5 67L89 34.5L121.5 2H117L52 67H56.5Z" fill="#F9BA89"/>
<path d="M56.5 67L89 34.5L121.5 2H117L52 67H56.5Z" fill="#E3CDBC"/>
<path d="M56.5 67L89 34.5L121.5 2H117L52 67H56.5Z" fill="#E3CDBC"/>
<path d="M56.5 67L89 34.5L121.5 2H117L52 67H56.5Z" fill="#E3CDBC"/>
<path d="M56.5 67L89 34.5L121.5 2H117L52 67H56.5Z" fill="#FDB176"/>
<path d="M56.5 67L89 34.5L121.5 2H117L52 67H56.5Z" fill="#FDB176"/>
<path d="M56.5 67L89 34.5L121.5 2H117L52 67H56.5Z" fill="#FFF8F2"/>
<path d="M56.5 67H52M56.5 67V198.5H52V67M56.5 67L89 34.5L121.5 2H117L52 67" stroke="#424242"/>
</svg>
