<svg width="437" height="286" viewBox="0 0 437 286" fill="none" xmlns="http://www.w3.org/2000/svg">
<rect width="437" height="286" fill="white"/>
<path d="M231.5 197.5L296.5 132.5V1L231.5 66V197.5Z" fill="#FDEBDD"/>
<path d="M185 197.5H231.5V66H185V197.5Z" fill="#FDEBDD"/>
<path d="M231.5 66L296.5 1H250L185 66H231.5Z" fill="#FDEBDD"/>
<path d="M231.5 197.5H185V66M231.5 197.5L296.5 132.5V1M231.5 197.5V66M296.5 1L231.5 66M296.5 1H250L185 66M231.5 66H185" stroke="#424242"/>
<path d="M262 101.796V116L271.741 106.204V92L262 101.796Z" fill="#FFC99F"/>
<path d="M262 101.796V116M262 101.796L271.741 92M262 101.796L356 106.204M262 116L271.741 106.204M262 116L356 106.204M271.741 106.204V92M271.741 106.204H356M271.741 92L356 106.204" stroke="#424242" stroke-width="0.5"/>
<path d="M59.5 197.5L124.5 132.5V1L59.5 66V197.5Z" fill="#FDEBDD"/>
<path d="M13 197.5H59.5V66H13V197.5Z" fill="#FDEBDD"/>
<path d="M59.5 66L124.5 1H78L13 66H59.5Z" fill="#FDEBDD"/>
<path d="M59.5 197.5H13V66M59.5 197.5L124.5 132.5V1M59.5 197.5V66M124.5 1L59.5 66M124.5 1H78L13 66M59.5 66H13" stroke="#424242"/>
<path d="M75 111.5V126L85 116V101.5L75 111.5Z" fill="#FFC99F"/>
<path d="M85 101.5V116L95 106V91.5L85 101.5Z" fill="#FFC99F"/>
<path d="M95 91.5V106L105 96V81.5L95 91.5Z" fill="#FFC99F"/>
<path d="M75 97L75 111.5L85 101.5L85 87L75 97Z" fill="#FFC99F"/>
<path d="M85 87L85 101.5L95 91.5L95 77L85 87Z" fill="#FFC99F"/>
<path d="M95 77L95 91.5L105 81.5L105 67L95 77Z" fill="#FFC99F"/>
<path d="M75 126V140.5L85 130.5V116L75 126Z" fill="#FFC99F"/>
<path d="M85 116V130.5L95 120.5V106L85 116Z" fill="#FFC99F"/>
<path d="M95 106V120.5L105 110.5V96L95 106Z" fill="#FFC99F"/>
<path d="M75 111.5V126M75 111.5L85 101.5M75 111.5L75 97L85 87M75 126L85 116M75 126V140.5L85 130.5M85 116V101.5M85 116L95 106M85 116V130.5M85 101.5L95 91.5M85 101.5L85 87M95 106V91.5M95 106L105 96M95 106V120.5M95 91.5L105 81.5M95 91.5L95 77M105 96V81.5M105 96V110.5L95 120.5M105 81.5L105 67L95 77M85 87L95 77M85 130.5L95 120.5" stroke="#424242" stroke-width="0.5"/>
<path d="M75 97L181 106.5M181 106.5L105 67M181 106.5L75 140.5M181 106.5L105 110.5" stroke="#424242" stroke-width="0.5"/>
<path d="M371.5 197.5L436.5 132.5V1L371.5 66V197.5Z" fill="#FDEBDD"/>
<path d="M371.5 66L436.5 1H425L360 66H371.5Z" fill="#FDEBDD"/>
<path d="M360 197.5H371.5V66H360V197.5Z" fill="#FDEBDD"/>
<path d="M371.5 197.5H360V66M371.5 197.5L436.5 132.5V1M371.5 197.5V66M436.5 1L371.5 66M436.5 1H425L360 66M371.5 66H360" stroke="#424242"/>
<path d="M8.63379 129H7.78613V124.229H2.09863V129H1.25781V119.047H2.09863V123.518H7.78613V119.047H8.63379V129Z" fill="black"/>
<path d="M36.3057 208.896C36.1917 209.945 35.8158 210.747 35.1777 211.303C34.5443 211.859 33.6989 212.137 32.6416 212.137C31.9033 212.137 31.2493 211.952 30.6797 211.583C30.1146 211.214 29.6771 210.692 29.3672 210.018C29.0573 209.339 28.9001 208.564 28.8955 207.693V206.401C28.8955 205.517 29.0505 204.733 29.3604 204.05C29.6702 203.366 30.1146 202.84 30.6934 202.471C31.2767 202.097 31.9466 201.91 32.7031 201.91C33.7695 201.91 34.6104 202.2 35.2256 202.778C35.8454 203.353 36.2054 204.148 36.3057 205.164H35.458C35.2484 203.473 34.3301 202.628 32.7031 202.628C31.8008 202.628 31.0807 202.965 30.543 203.64C30.0098 204.314 29.7432 205.246 29.7432 206.436V207.652C29.7432 208.801 30.0029 209.717 30.5225 210.4C31.0465 211.084 31.7529 211.426 32.6416 211.426C33.5212 211.426 34.1842 211.216 34.6309 210.797C35.0775 210.373 35.3532 209.74 35.458 208.896H36.3057Z" fill="black"/>
<path d="M98.4506 175L99.7551 175.883L98.985 174.568L95.3675 167.831L95.9074 167.298L102.579 171.018L103.889 171.819L103.027 170.479L99.2 164.046L99.8128 163.441L104.993 172.314L104.419 172.881L97.3426 168.926L96.4709 168.404L96.9876 169.277L100.815 176.44L100.241 177.007L91.4378 171.713L92.0506 171.107L98.4506 175Z" fill="black"/>
<path d="M205.961 206.794H207.513V207.484H205.961V210H205.141V207.484H200.458V207.02L205.065 200.047H205.961V206.794ZM201.463 206.794H205.141V201.106L204.778 201.735L201.463 206.794ZM216.071 206.896C215.957 207.945 215.581 208.747 214.943 209.303C214.31 209.859 213.465 210.137 212.407 210.137C211.669 210.137 211.015 209.952 210.445 209.583C209.88 209.214 209.443 208.692 209.133 208.018C208.823 207.339 208.666 206.564 208.661 205.693V204.401C208.661 203.517 208.816 202.733 209.126 202.05C209.436 201.366 209.88 200.84 210.459 200.471C211.042 200.097 211.712 199.91 212.469 199.91C213.535 199.91 214.376 200.2 214.991 200.778C215.611 201.353 215.971 202.148 216.071 203.164H215.224C215.014 201.473 214.096 200.628 212.469 200.628C211.566 200.628 210.846 200.965 210.309 201.64C209.775 202.314 209.509 203.246 209.509 204.436V205.652C209.509 206.801 209.769 207.717 210.288 208.4C210.812 209.084 211.519 209.426 212.407 209.426C213.287 209.426 213.95 209.216 214.396 208.797C214.843 208.373 215.119 207.74 215.224 206.896H216.071Z" fill="black"/>
<path d="M368.306 206.896C368.192 207.945 367.816 208.747 367.178 209.303C366.544 209.859 365.699 210.137 364.642 210.137C363.903 210.137 363.249 209.952 362.68 209.583C362.115 209.214 361.677 208.692 361.367 208.018C361.057 207.339 360.9 206.564 360.896 205.693V204.401C360.896 203.517 361.05 202.733 361.36 202.05C361.67 201.366 362.115 200.84 362.693 200.471C363.277 200.097 363.947 199.91 364.703 199.91C365.77 199.91 366.61 200.2 367.226 200.778C367.845 201.353 368.205 202.148 368.306 203.164H367.458C367.248 201.473 366.33 200.628 364.703 200.628C363.801 200.628 363.081 200.965 362.543 201.64C362.01 202.314 361.743 203.246 361.743 204.436V205.652C361.743 206.801 362.003 207.717 362.522 208.4C363.047 209.084 363.753 209.426 364.642 209.426C365.521 209.426 366.184 209.216 366.631 208.797C367.077 208.373 367.353 207.74 367.458 206.896H368.306Z" fill="black"/>
<path d="M34 257.212H33.5V257.712H34V257.212ZM365 257.212V257.712H365.5V257.212H365ZM365.354 219.204C365.158 219.009 364.842 219.009 364.646 219.204L361.464 222.386C361.269 222.581 361.269 222.898 361.464 223.093C361.66 223.288 361.976 223.288 362.172 223.093L365 220.265L367.828 223.093C368.024 223.288 368.34 223.288 368.536 223.093C368.731 222.898 368.731 222.581 368.536 222.386L365.354 219.204ZM33.5 219.558V257.212H34.5V219.558H33.5ZM34 257.712H365V256.712H34V257.712ZM365.5 257.212V219.558H364.5V257.212H365.5Z" fill="#424242"/>
<ellipse cx="214.608" cy="257.212" rx="8.92739" ry="13.23" fill="white"/>
<path d="M217.184 256.293H222.375V257.605H217.184V263.254H215.766V257.605H210.68V256.293H215.766V250.832H217.184V256.293Z" fill="black"/>
<path d="M197.532 276.738C197.341 276.706 197.133 276.69 196.91 276.69C196.081 276.69 195.518 277.044 195.222 277.75V283H193.957V275.604H195.188L195.208 276.458C195.623 275.797 196.211 275.467 196.972 275.467C197.218 275.467 197.405 275.499 197.532 275.562V276.738ZM201.634 283.137C200.631 283.137 199.815 282.809 199.187 282.152C198.558 281.492 198.243 280.61 198.243 279.507V279.274C198.243 278.541 198.382 277.887 198.66 277.312C198.943 276.734 199.335 276.283 199.836 275.959C200.342 275.631 200.889 275.467 201.477 275.467C202.438 275.467 203.186 275.784 203.719 276.417C204.252 277.05 204.519 277.957 204.519 279.138V279.664H199.508C199.526 280.393 199.738 280.983 200.144 281.435C200.554 281.881 201.073 282.104 201.702 282.104C202.149 282.104 202.527 282.013 202.837 281.831C203.147 281.649 203.418 281.407 203.65 281.106L204.423 281.708C203.803 282.66 202.873 283.137 201.634 283.137ZM201.477 276.506C200.966 276.506 200.538 276.693 200.191 277.066C199.845 277.436 199.631 277.955 199.549 278.625H203.254V278.529C203.217 277.887 203.044 277.39 202.734 277.039C202.424 276.684 202.005 276.506 201.477 276.506ZM210.295 281.038C210.295 280.696 210.165 280.432 209.905 280.245C209.65 280.054 209.201 279.89 208.559 279.753C207.921 279.616 207.412 279.452 207.034 279.261C206.66 279.069 206.382 278.841 206.2 278.577C206.022 278.313 205.934 277.998 205.934 277.634C205.934 277.028 206.189 276.515 206.699 276.096C207.214 275.676 207.87 275.467 208.668 275.467C209.507 275.467 210.186 275.683 210.705 276.116C211.229 276.549 211.491 277.103 211.491 277.777H210.22C210.22 277.431 210.072 277.132 209.775 276.882C209.484 276.631 209.115 276.506 208.668 276.506C208.208 276.506 207.848 276.606 207.588 276.807C207.328 277.007 207.198 277.269 207.198 277.593C207.198 277.898 207.319 278.128 207.561 278.283C207.802 278.438 208.237 278.586 208.866 278.728C209.5 278.869 210.012 279.037 210.404 279.233C210.796 279.429 211.086 279.666 211.272 279.944C211.464 280.218 211.56 280.553 211.56 280.949C211.56 281.61 211.295 282.141 210.767 282.542C210.238 282.938 209.552 283.137 208.709 283.137C208.117 283.137 207.592 283.032 207.137 282.822C206.681 282.613 206.323 282.321 206.063 281.947C205.808 281.569 205.681 281.161 205.681 280.724H206.945C206.968 281.147 207.137 281.485 207.451 281.735C207.77 281.981 208.189 282.104 208.709 282.104C209.188 282.104 209.57 282.009 209.857 281.817C210.149 281.621 210.295 281.362 210.295 281.038ZM214.581 283H213.316V275.604H214.581V283ZM213.214 273.642C213.214 273.437 213.275 273.263 213.398 273.122C213.526 272.981 213.713 272.91 213.959 272.91C214.205 272.91 214.392 272.981 214.52 273.122C214.647 273.263 214.711 273.437 214.711 273.642C214.711 273.847 214.647 274.018 214.52 274.154C214.392 274.291 214.205 274.359 213.959 274.359C213.713 274.359 213.526 274.291 213.398 274.154C213.275 274.018 213.214 273.847 213.214 273.642ZM216.304 279.24C216.304 278.105 216.573 277.194 217.11 276.506C217.648 275.813 218.352 275.467 219.223 275.467C220.089 275.467 220.774 275.763 221.28 276.355V272.5H222.545V283H221.383L221.321 282.207C220.815 282.827 220.111 283.137 219.209 283.137C218.352 283.137 217.653 282.786 217.11 282.084C216.573 281.382 216.304 280.466 216.304 279.336V279.24ZM217.568 279.384C217.568 280.222 217.742 280.879 218.088 281.353C218.434 281.826 218.913 282.063 219.523 282.063C220.326 282.063 220.911 281.703 221.28 280.983V277.586C220.902 276.889 220.321 276.54 219.537 276.54C218.917 276.54 218.434 276.779 218.088 277.258C217.742 277.736 217.568 278.445 217.568 279.384ZM229.08 282.269C228.588 282.847 227.866 283.137 226.913 283.137C226.125 283.137 225.523 282.909 225.108 282.453C224.698 281.993 224.491 281.314 224.486 280.416V275.604H225.751V280.382C225.751 281.503 226.207 282.063 227.118 282.063C228.084 282.063 228.727 281.703 229.046 280.983V275.604H230.311V283H229.107L229.08 282.269ZM236.805 283C236.732 282.854 236.673 282.594 236.627 282.221C236.039 282.831 235.337 283.137 234.521 283.137C233.792 283.137 233.193 282.932 232.724 282.521C232.259 282.107 232.026 281.583 232.026 280.949C232.026 280.179 232.318 279.582 232.901 279.158C233.489 278.73 234.314 278.516 235.376 278.516H236.606V277.935C236.606 277.493 236.474 277.142 236.21 276.882C235.946 276.618 235.556 276.485 235.041 276.485C234.59 276.485 234.212 276.599 233.906 276.827C233.601 277.055 233.448 277.331 233.448 277.654H232.177C232.177 277.285 232.307 276.93 232.566 276.588C232.831 276.242 233.186 275.968 233.633 275.768C234.084 275.567 234.578 275.467 235.116 275.467C235.968 275.467 236.636 275.681 237.119 276.109C237.602 276.533 237.853 277.119 237.871 277.866V281.271C237.871 281.95 237.958 282.49 238.131 282.891V283H236.805ZM234.706 282.036C235.103 282.036 235.479 281.934 235.834 281.729C236.189 281.523 236.447 281.257 236.606 280.929V279.411H235.615C234.066 279.411 233.291 279.865 233.291 280.771C233.291 281.168 233.423 281.478 233.688 281.701C233.952 281.924 234.291 282.036 234.706 282.036ZM241.228 283H239.963V272.5H241.228V283Z" fill="black"/>
<path d="M302.924 137.104C303.375 137.104 303.769 136.968 304.106 136.694C304.444 136.421 304.631 136.079 304.667 135.669H305.863C305.84 136.093 305.695 136.496 305.426 136.879C305.157 137.262 304.797 137.567 304.346 137.795C303.899 138.023 303.425 138.137 302.924 138.137C301.917 138.137 301.115 137.802 300.518 137.132C299.925 136.457 299.629 135.537 299.629 134.37V134.158C299.629 133.438 299.761 132.798 300.025 132.237C300.29 131.677 300.668 131.242 301.16 130.932C301.657 130.622 302.243 130.467 302.917 130.467C303.746 130.467 304.435 130.715 304.981 131.212C305.533 131.709 305.827 132.354 305.863 133.146H304.667C304.631 132.668 304.448 132.276 304.12 131.971C303.797 131.661 303.396 131.506 302.917 131.506C302.274 131.506 301.775 131.738 301.42 132.203C301.069 132.663 300.894 133.331 300.894 134.206V134.445C300.894 135.298 301.069 135.954 301.42 136.414C301.771 136.874 302.272 137.104 302.924 137.104ZM306.95 134.233C306.95 133.509 307.091 132.857 307.374 132.278C307.661 131.7 308.058 131.253 308.563 130.938C309.074 130.624 309.655 130.467 310.307 130.467C311.314 130.467 312.127 130.815 312.747 131.513C313.371 132.21 313.684 133.137 313.684 134.295V134.384C313.684 135.104 313.545 135.751 313.267 136.325C312.993 136.895 312.599 137.339 312.084 137.658C311.574 137.977 310.986 138.137 310.32 138.137C309.318 138.137 308.504 137.788 307.88 137.091C307.26 136.394 306.95 135.471 306.95 134.322V134.233ZM308.222 134.384C308.222 135.204 308.411 135.863 308.789 136.359C309.172 136.856 309.682 137.104 310.32 137.104C310.963 137.104 311.473 136.854 311.852 136.353C312.23 135.847 312.419 135.14 312.419 134.233C312.419 133.422 312.225 132.766 311.838 132.265C311.455 131.759 310.945 131.506 310.307 131.506C309.682 131.506 309.179 131.754 308.796 132.251C308.413 132.748 308.222 133.459 308.222 134.384ZM316.466 130.604L316.507 131.533C317.072 130.822 317.81 130.467 318.722 130.467C320.285 130.467 321.073 131.349 321.087 133.112V138H319.822V133.105C319.818 132.572 319.695 132.178 319.453 131.923C319.216 131.668 318.845 131.54 318.339 131.54C317.929 131.54 317.569 131.649 317.259 131.868C316.949 132.087 316.707 132.374 316.534 132.729V138H315.27V130.604H316.466ZM325.435 136.284L327.267 130.604H328.559L325.906 138H324.942L322.263 130.604H323.555L325.435 136.284ZM337.274 138H336.003V129.571L333.453 130.508V129.359L337.076 127.999H337.274V138ZM343.591 133.304L345.231 130.604H346.708L344.288 134.261L346.783 138H345.32L343.611 135.231L341.902 138H340.433L342.928 134.261L340.508 130.604H341.971L343.591 133.304ZM352.081 138H350.81V129.571L348.26 130.508V129.359L351.883 127.999H352.081V138Z" fill="black"/>
<path d="M130.424 137.104C130.875 137.104 131.269 136.968 131.606 136.694C131.944 136.421 132.131 136.079 132.167 135.669H133.363C133.34 136.093 133.195 136.496 132.926 136.879C132.657 137.262 132.297 137.567 131.846 137.795C131.399 138.023 130.925 138.137 130.424 138.137C129.417 138.137 128.615 137.802 128.018 137.132C127.425 136.457 127.129 135.537 127.129 134.37V134.158C127.129 133.438 127.261 132.798 127.525 132.237C127.79 131.677 128.168 131.242 128.66 130.932C129.157 130.622 129.743 130.467 130.417 130.467C131.246 130.467 131.935 130.715 132.481 131.212C133.033 131.709 133.327 132.354 133.363 133.146H132.167C132.131 132.668 131.948 132.276 131.62 131.971C131.297 131.661 130.896 131.506 130.417 131.506C129.774 131.506 129.275 131.738 128.92 132.203C128.569 132.663 128.394 133.331 128.394 134.206V134.445C128.394 135.298 128.569 135.954 128.92 136.414C129.271 136.874 129.772 137.104 130.424 137.104ZM134.45 134.233C134.45 133.509 134.591 132.857 134.874 132.278C135.161 131.7 135.558 131.253 136.063 130.938C136.574 130.624 137.155 130.467 137.807 130.467C138.814 130.467 139.627 130.815 140.247 131.513C140.871 132.21 141.184 133.137 141.184 134.295V134.384C141.184 135.104 141.045 135.751 140.767 136.325C140.493 136.895 140.099 137.339 139.584 137.658C139.074 137.977 138.486 138.137 137.82 138.137C136.818 138.137 136.004 137.788 135.38 137.091C134.76 136.394 134.45 135.471 134.45 134.322V134.233ZM135.722 134.384C135.722 135.204 135.911 135.863 136.289 136.359C136.672 136.856 137.182 137.104 137.82 137.104C138.463 137.104 138.973 136.854 139.352 136.353C139.73 135.847 139.919 135.14 139.919 134.233C139.919 133.422 139.725 132.766 139.338 132.265C138.955 131.759 138.445 131.506 137.807 131.506C137.182 131.506 136.679 131.754 136.296 132.251C135.913 132.748 135.722 133.459 135.722 134.384ZM143.966 130.604L144.007 131.533C144.572 130.822 145.31 130.467 146.222 130.467C147.785 130.467 148.573 131.349 148.587 133.112V138H147.322V133.105C147.318 132.572 147.195 132.178 146.953 131.923C146.716 131.668 146.345 131.54 145.839 131.54C145.429 131.54 145.069 131.649 144.759 131.868C144.449 132.087 144.207 132.374 144.034 132.729V138H142.77V130.604H143.966ZM152.935 136.284L154.767 130.604H156.059L153.406 138H152.442L149.763 130.604H151.055L152.935 136.284ZM162.457 132.408H163.407C164.004 132.399 164.474 132.242 164.815 131.937C165.157 131.631 165.328 131.219 165.328 130.699C165.328 129.533 164.747 128.949 163.585 128.949C163.038 128.949 162.601 129.106 162.272 129.421C161.949 129.731 161.787 130.143 161.787 130.658H160.522C160.522 129.87 160.81 129.216 161.384 128.696C161.963 128.172 162.696 127.91 163.585 127.91C164.524 127.91 165.26 128.159 165.793 128.655C166.326 129.152 166.593 129.842 166.593 130.727C166.593 131.16 166.451 131.579 166.169 131.984C165.891 132.39 165.51 132.693 165.027 132.894C165.574 133.067 165.996 133.354 166.292 133.755C166.593 134.156 166.743 134.646 166.743 135.225C166.743 136.118 166.451 136.826 165.868 137.351C165.285 137.875 164.526 138.137 163.592 138.137C162.658 138.137 161.896 137.884 161.309 137.378C160.725 136.872 160.434 136.204 160.434 135.375H161.705C161.705 135.899 161.876 136.318 162.218 136.633C162.56 136.947 163.018 137.104 163.592 137.104C164.202 137.104 164.67 136.945 164.993 136.626C165.317 136.307 165.479 135.849 165.479 135.252C165.479 134.673 165.301 134.229 164.945 133.919C164.59 133.609 164.077 133.45 163.407 133.44H162.457V132.408ZM171.091 133.304L172.731 130.604H174.208L171.788 134.261L174.283 138H172.82L171.111 135.231L169.402 138H167.933L170.428 134.261L168.008 130.604H169.471L171.091 133.304ZM177.264 132.408H178.214C178.811 132.399 179.28 132.242 179.622 131.937C179.964 131.631 180.135 131.219 180.135 130.699C180.135 129.533 179.554 128.949 178.392 128.949C177.845 128.949 177.407 129.106 177.079 129.421C176.756 129.731 176.594 130.143 176.594 130.658H175.329C175.329 129.87 175.616 129.216 176.19 128.696C176.769 128.172 177.503 127.91 178.392 127.91C179.33 127.91 180.066 128.159 180.6 128.655C181.133 129.152 181.399 129.842 181.399 130.727C181.399 131.16 181.258 131.579 180.976 131.984C180.698 132.39 180.317 132.693 179.834 132.894C180.381 133.067 180.802 133.354 181.099 133.755C181.399 134.156 181.55 134.646 181.55 135.225C181.55 136.118 181.258 136.826 180.675 137.351C180.091 137.875 179.333 138.137 178.398 138.137C177.464 138.137 176.703 137.884 176.115 137.378C175.532 136.872 175.24 136.204 175.24 135.375H176.512C176.512 135.899 176.683 136.318 177.024 136.633C177.366 136.947 177.824 137.104 178.398 137.104C179.009 137.104 179.476 136.945 179.8 136.626C180.123 136.307 180.285 135.849 180.285 135.252C180.285 134.673 180.107 134.229 179.752 133.919C179.396 133.609 178.884 133.45 178.214 133.44H177.264V132.408Z" fill="black"/>
</svg>
