<svg width="571" height="283" viewBox="0 0 571 283" fill="none" xmlns="http://www.w3.org/2000/svg">
<rect width="571" height="283" fill="white"/>
<path d="M365.5 197.5L430.5 132.5V1L365.5 66V197.5Z" fill="#FDEBDD"/>
<path d="M319 197.5H365.5V66H319V197.5Z" fill="#FDEBDD"/>
<path d="M365.5 66L430.5 1H384L319 66H365.5Z" fill="#FDEBDD"/>
<path d="M365.5 197.5H319V66M365.5 197.5L430.5 132.5V1M365.5 197.5V66M430.5 1L365.5 66M430.5 1H384L319 66M365.5 66H319" stroke="#424242"/>
<path d="M396 101.796V116L405.741 106.204V92L396 101.796Z" fill="#FFC99F"/>
<path d="M396 101.796V116M396 101.796L405.741 92M396 101.796L490 106.204M396 116L405.741 106.204M396 116L490 106.204M405.741 106.204V92M405.741 106.204H490M405.741 92L490 106.204" stroke="#424242" stroke-width="0.5"/>
<path d="M193.5 197.5L258.5 132.5V1L193.5 66V197.5Z" fill="#FDEBDD"/>
<path d="M147 197.5H193.5V66H147V197.5Z" fill="#FDEBDD"/>
<path d="M193.5 66L258.5 1H212L147 66H193.5Z" fill="#FDEBDD"/>
<path d="M193.5 197.5H147V66M193.5 197.5L258.5 132.5V1M193.5 197.5V66M258.5 1L193.5 66M258.5 1H212L147 66M193.5 66H147" stroke="#424242"/>
<path d="M209 111.5V126L219 116V101.5L209 111.5Z" fill="#FFC99F"/>
<path d="M219 101.5V116L229 106V91.5L219 101.5Z" fill="#FFC99F"/>
<path d="M229 91.5V106L239 96V81.5L229 91.5Z" fill="#FFC99F"/>
<path d="M209 97L209 111.5L219 101.5L219 87L209 97Z" fill="#FFC99F"/>
<path d="M219 87L219 101.5L229 91.5L229 77L219 87Z" fill="#FFC99F"/>
<path d="M229 77L229 91.5L239 81.5L239 67L229 77Z" fill="#FFC99F"/>
<path d="M209 126V140.5L219 130.5V116L209 126Z" fill="#FFC99F"/>
<path d="M219 116V130.5L229 120.5V106L219 116Z" fill="#FFC99F"/>
<path d="M229 106V120.5L239 110.5V96L229 106Z" fill="#FFC99F"/>
<path d="M209 111.5V126M209 111.5L219 101.5M209 111.5L209 97L219 87M209 126L219 116M209 126V140.5L219 130.5M219 116V101.5M219 116L229 106M219 116V130.5M219 101.5L229 91.5M219 101.5L219 87M229 106V91.5M229 106L239 96M229 106V120.5M229 91.5L239 81.5M229 91.5L229 77M239 96V81.5M239 96V110.5L229 120.5M239 81.5L239 67L229 77M219 87L229 77M219 130.5L229 120.5" stroke="#424242" stroke-width="0.5"/>
<path d="M209 97L315 106.5M315 106.5L239 67M315 106.5L209 140.5M315 106.5L239 110.5" stroke="#424242" stroke-width="0.5"/>
<path d="M22.5 197.5L87.5 132.5V1L22.5 66V197.5Z" fill="#FDEBDD"/>
<path d="M22.5 66L87.5 1H76L11 66H22.5Z" fill="#FDEBDD"/>
<path d="M11 197.5H22.5V66H11V197.5Z" fill="#FDEBDD"/>
<path d="M22.5 197.5H11V66M22.5 197.5L87.5 132.5V1M22.5 197.5V66M87.5 1L22.5 66M87.5 1H76L11 66M22.5 66H11" stroke="#424242"/>
<path d="M49 101.796V116L58.7409 106.204V92L49 101.796Z" fill="#FFC99F"/>
<path d="M49 101.796V116M49 101.796L58.7409 92M49 101.796L143 106.204M49 116L58.7409 106.204M49 116L143 106.204M58.7409 106.204V92M58.7409 106.204H143M58.7409 92L143 106.204" stroke="#424242" stroke-width="0.5"/>
<path d="M505.5 197.5L570.5 132.5V1L505.5 66V197.5Z" fill="#FDEBDD"/>
<path d="M505.5 66L570.5 1H559L494 66H505.5Z" fill="#FDEBDD"/>
<path d="M494 197.5H505.5V66H494V197.5Z" fill="#FDEBDD"/>
<path d="M505.5 197.5H494V66M505.5 197.5L570.5 132.5V1M505.5 197.5V66M570.5 1L505.5 66M570.5 1H559L494 66M505.5 66H494" stroke="#424242"/>
<path d="M8.63379 129H7.78613V124.229H2.09863V129H1.25781V119.047H2.09863V123.518H7.78613V119.047H8.63379V129Z" fill="black"/>
<path d="M19.3057 206.896C19.1917 207.945 18.8158 208.747 18.1777 209.303C17.5443 209.859 16.6989 210.137 15.6416 210.137C14.9033 210.137 14.2493 209.952 13.6797 209.583C13.1146 209.214 12.6771 208.692 12.3672 208.018C12.0573 207.339 11.9001 206.564 11.8955 205.693V204.401C11.8955 203.517 12.0505 202.733 12.3604 202.05C12.6702 201.366 13.1146 200.84 13.6934 200.471C14.2767 200.097 14.9466 199.91 15.7031 199.91C16.7695 199.91 17.6104 200.2 18.2256 200.778C18.8454 201.353 19.2054 202.148 19.3057 203.164H18.458C18.2484 201.473 17.3301 200.628 15.7031 200.628C14.8008 200.628 14.0807 200.965 13.543 201.64C13.0098 202.314 12.7432 203.246 12.7432 204.436V205.652C12.7432 206.801 13.0029 207.717 13.5225 208.4C14.0465 209.084 14.7529 209.426 15.6416 209.426C16.5212 209.426 17.1842 209.216 17.6309 208.797C18.0775 208.373 18.3532 207.74 18.458 206.896H19.3057Z" fill="black"/>
<path d="M71.4506 165L72.7551 165.883L71.985 164.568L68.3675 157.831L68.9074 157.298L75.5792 161.018L76.8891 161.819L76.0273 160.479L72.2 154.046L72.8128 153.441L77.9929 162.314L77.419 162.881L70.3426 158.926L69.4709 158.404L69.9876 159.277L73.8151 166.44L73.2412 167.007L64.4378 161.713L65.0506 161.107L71.4506 165Z" fill="black"/>
<path d="M169.961 206.794H171.513V207.484H169.961V210H169.141V207.484H164.458V207.02L169.065 200.047H169.961V206.794ZM165.463 206.794H169.141V201.106L168.778 201.735L165.463 206.794ZM180.071 206.896C179.957 207.945 179.581 208.747 178.943 209.303C178.31 209.859 177.465 210.137 176.407 210.137C175.669 210.137 175.015 209.952 174.445 209.583C173.88 209.214 173.443 208.692 173.133 208.018C172.823 207.339 172.666 206.564 172.661 205.693V204.401C172.661 203.517 172.816 202.733 173.126 202.05C173.436 201.366 173.88 200.84 174.459 200.471C175.042 200.097 175.712 199.91 176.469 199.91C177.535 199.91 178.376 200.2 178.991 200.778C179.611 201.353 179.971 202.148 180.071 203.164H179.224C179.014 201.473 178.096 200.628 176.469 200.628C175.566 200.628 174.846 200.965 174.309 201.64C173.775 202.314 173.509 203.246 173.509 204.436V205.652C173.509 206.801 173.769 207.717 174.288 208.4C174.812 209.084 175.519 209.426 176.407 209.426C177.287 209.426 177.95 209.216 178.396 208.797C178.843 208.373 179.119 207.74 179.224 206.896H180.071Z" fill="black"/>
<path d="M339.961 206.794H341.513V207.484H339.961V210H339.141V207.484H334.458V207.02L339.065 200.047H339.961V206.794ZM335.463 206.794H339.141V201.106L338.778 201.735L335.463 206.794ZM350.071 206.896C349.957 207.945 349.581 208.747 348.943 209.303C348.31 209.859 347.465 210.137 346.407 210.137C345.669 210.137 345.015 209.952 344.445 209.583C343.88 209.214 343.443 208.692 343.133 208.018C342.823 207.339 342.666 206.564 342.661 205.693V204.401C342.661 203.517 342.816 202.733 343.126 202.05C343.436 201.366 343.88 200.84 344.459 200.471C345.042 200.097 345.712 199.91 346.469 199.91C347.535 199.91 348.376 200.2 348.991 200.778C349.611 201.353 349.971 202.148 350.071 203.164H349.224C349.014 201.473 348.096 200.628 346.469 200.628C345.566 200.628 344.846 200.965 344.309 201.64C343.775 202.314 343.509 203.246 343.509 204.436V205.652C343.509 206.801 343.769 207.717 344.288 208.4C344.812 209.084 345.519 209.426 346.407 209.426C347.287 209.426 347.95 209.216 348.396 208.797C348.843 208.373 349.119 207.74 349.224 206.896H350.071Z" fill="black"/>
<path d="M502.306 206.896C502.192 207.945 501.816 208.747 501.178 209.303C500.544 209.859 499.699 210.137 498.642 210.137C497.903 210.137 497.249 209.952 496.68 209.583C496.115 209.214 495.677 208.692 495.367 208.018C495.057 207.339 494.9 206.564 494.896 205.693V204.401C494.896 203.517 495.05 202.733 495.36 202.05C495.67 201.366 496.115 200.84 496.693 200.471C497.277 200.097 497.947 199.91 498.703 199.91C499.77 199.91 500.61 200.2 501.226 200.778C501.845 201.353 502.205 202.148 502.306 203.164H501.458C501.248 201.473 500.33 200.628 498.703 200.628C497.801 200.628 497.081 200.965 496.543 201.64C496.01 202.314 495.743 203.246 495.743 204.436V205.652C495.743 206.801 496.003 207.717 496.522 208.4C497.047 209.084 497.753 209.426 498.642 209.426C499.521 209.426 500.184 209.216 500.631 208.797C501.077 208.373 501.353 207.74 501.458 206.896H502.306Z" fill="black"/>
<path d="M15 257.212H14.5V257.712H15V257.212ZM499 257.212V257.712H499.5V257.212H499ZM499.354 219.204C499.158 219.009 498.842 219.009 498.646 219.204L495.464 222.386C495.269 222.581 495.269 222.898 495.464 223.093C495.66 223.288 495.976 223.288 496.172 223.093L499 220.265L501.828 223.093C502.024 223.288 502.34 223.288 502.536 223.093C502.731 222.898 502.731 222.581 502.536 222.386L499.354 219.204ZM14.5 219.558V257.212H15.5V219.558H14.5ZM15 257.712H499V256.712H15V257.712ZM499.5 257.212V219.558H498.5V257.212H499.5Z" fill="#424242"/>
<ellipse cx="279.091" cy="257.212" rx="13.0539" ry="13.23" fill="white"/>
<path d="M279.445 256.293H284.636V257.605H279.445V263.254H278.027V257.605H272.941V256.293H278.027V250.832H279.445V256.293Z" fill="black"/>
<path d="M254.532 273.738C254.341 273.706 254.133 273.69 253.91 273.69C253.081 273.69 252.518 274.044 252.222 274.75V280H250.957V272.604H252.188L252.208 273.458C252.623 272.797 253.211 272.467 253.972 272.467C254.218 272.467 254.405 272.499 254.532 272.562V273.738ZM258.634 280.137C257.631 280.137 256.815 279.809 256.187 279.152C255.558 278.492 255.243 277.61 255.243 276.507V276.274C255.243 275.541 255.382 274.887 255.66 274.312C255.943 273.734 256.335 273.283 256.836 272.959C257.342 272.631 257.889 272.467 258.477 272.467C259.438 272.467 260.186 272.784 260.719 273.417C261.252 274.05 261.519 274.957 261.519 276.138V276.664H256.508C256.526 277.393 256.738 277.983 257.144 278.435C257.554 278.881 258.073 279.104 258.702 279.104C259.149 279.104 259.527 279.013 259.837 278.831C260.147 278.649 260.418 278.407 260.65 278.106L261.423 278.708C260.803 279.66 259.873 280.137 258.634 280.137ZM258.477 273.506C257.966 273.506 257.538 273.693 257.191 274.066C256.845 274.436 256.631 274.955 256.549 275.625H260.254V275.529C260.217 274.887 260.044 274.39 259.734 274.039C259.424 273.684 259.005 273.506 258.477 273.506ZM267.295 278.038C267.295 277.696 267.165 277.432 266.905 277.245C266.65 277.054 266.201 276.89 265.559 276.753C264.921 276.616 264.412 276.452 264.034 276.261C263.66 276.069 263.382 275.841 263.2 275.577C263.022 275.313 262.934 274.998 262.934 274.634C262.934 274.028 263.189 273.515 263.699 273.096C264.214 272.676 264.87 272.467 265.668 272.467C266.507 272.467 267.186 272.683 267.705 273.116C268.229 273.549 268.491 274.103 268.491 274.777H267.22C267.22 274.431 267.072 274.132 266.775 273.882C266.484 273.631 266.115 273.506 265.668 273.506C265.208 273.506 264.848 273.606 264.588 273.807C264.328 274.007 264.198 274.269 264.198 274.593C264.198 274.898 264.319 275.128 264.561 275.283C264.802 275.438 265.237 275.586 265.866 275.728C266.5 275.869 267.012 276.037 267.404 276.233C267.796 276.429 268.086 276.666 268.272 276.944C268.464 277.218 268.56 277.553 268.56 277.949C268.56 278.61 268.295 279.141 267.767 279.542C267.238 279.938 266.552 280.137 265.709 280.137C265.117 280.137 264.592 280.032 264.137 279.822C263.681 279.613 263.323 279.321 263.063 278.947C262.808 278.569 262.681 278.161 262.681 277.724H263.945C263.968 278.147 264.137 278.485 264.451 278.735C264.77 278.981 265.189 279.104 265.709 279.104C266.188 279.104 266.57 279.009 266.857 278.817C267.149 278.621 267.295 278.362 267.295 278.038ZM271.581 280H270.316V272.604H271.581V280ZM270.214 270.642C270.214 270.437 270.275 270.263 270.398 270.122C270.526 269.981 270.713 269.91 270.959 269.91C271.205 269.91 271.392 269.981 271.52 270.122C271.647 270.263 271.711 270.437 271.711 270.642C271.711 270.847 271.647 271.018 271.52 271.154C271.392 271.291 271.205 271.359 270.959 271.359C270.713 271.359 270.526 271.291 270.398 271.154C270.275 271.018 270.214 270.847 270.214 270.642ZM273.304 276.24C273.304 275.105 273.573 274.194 274.11 273.506C274.648 272.813 275.352 272.467 276.223 272.467C277.089 272.467 277.774 272.763 278.28 273.355V269.5H279.545V280H278.383L278.321 279.207C277.815 279.827 277.111 280.137 276.209 280.137C275.352 280.137 274.653 279.786 274.11 279.084C273.573 278.382 273.304 277.466 273.304 276.336V276.24ZM274.568 276.384C274.568 277.222 274.742 277.879 275.088 278.353C275.434 278.826 275.913 279.063 276.523 279.063C277.326 279.063 277.911 278.703 278.28 277.983V274.586C277.902 273.889 277.321 273.54 276.537 273.54C275.917 273.54 275.434 273.779 275.088 274.258C274.742 274.736 274.568 275.445 274.568 276.384ZM286.08 279.269C285.588 279.847 284.866 280.137 283.913 280.137C283.125 280.137 282.523 279.909 282.108 279.453C281.698 278.993 281.491 278.314 281.486 277.416V272.604H282.751V277.382C282.751 278.503 283.207 279.063 284.118 279.063C285.084 279.063 285.727 278.703 286.046 277.983V272.604H287.311V280H286.107L286.08 279.269ZM293.805 280C293.732 279.854 293.673 279.594 293.627 279.221C293.039 279.831 292.337 280.137 291.521 280.137C290.792 280.137 290.193 279.932 289.724 279.521C289.259 279.107 289.026 278.583 289.026 277.949C289.026 277.179 289.318 276.582 289.901 276.158C290.489 275.73 291.314 275.516 292.376 275.516H293.606V274.935C293.606 274.493 293.474 274.142 293.21 273.882C292.946 273.618 292.556 273.485 292.041 273.485C291.59 273.485 291.212 273.599 290.906 273.827C290.601 274.055 290.448 274.331 290.448 274.654H289.177C289.177 274.285 289.307 273.93 289.566 273.588C289.831 273.242 290.186 272.968 290.633 272.768C291.084 272.567 291.578 272.467 292.116 272.467C292.968 272.467 293.636 272.681 294.119 273.109C294.602 273.533 294.853 274.119 294.871 274.866V278.271C294.871 278.95 294.958 279.49 295.131 279.891V280H293.805ZM291.706 279.036C292.103 279.036 292.479 278.934 292.834 278.729C293.189 278.523 293.447 278.257 293.606 277.929V276.411H292.615C291.066 276.411 290.291 276.865 290.291 277.771C290.291 278.168 290.423 278.478 290.688 278.701C290.952 278.924 291.291 279.036 291.706 279.036ZM298.228 280H296.963V269.5H298.228V280Z" fill="black"/>
<path d="M92.9238 137.104C93.375 137.104 93.7692 136.968 94.1064 136.694C94.4437 136.421 94.6305 136.079 94.667 135.669H95.8633C95.8405 136.093 95.6947 136.496 95.4258 136.879C95.1569 137.262 94.7969 137.567 94.3457 137.795C93.8991 138.023 93.4251 138.137 92.9238 138.137C91.9167 138.137 91.1146 137.802 90.5176 137.132C89.9251 136.457 89.6289 135.537 89.6289 134.37V134.158C89.6289 133.438 89.7611 132.798 90.0254 132.237C90.2897 131.677 90.668 131.242 91.1602 130.932C91.6569 130.622 92.2425 130.467 92.917 130.467C93.7464 130.467 94.4346 130.715 94.9814 131.212C95.5329 131.709 95.8268 132.354 95.8633 133.146H94.667C94.6305 132.668 94.4482 132.276 94.1201 131.971C93.7965 131.661 93.3955 131.506 92.917 131.506C92.2744 131.506 91.7754 131.738 91.4199 132.203C91.069 132.663 90.8936 133.331 90.8936 134.206V134.445C90.8936 135.298 91.069 135.954 91.4199 136.414C91.7708 136.874 92.2721 137.104 92.9238 137.104ZM96.9502 134.233C96.9502 133.509 97.0915 132.857 97.374 132.278C97.6611 131.7 98.0576 131.253 98.5635 130.938C99.0739 130.624 99.6549 130.467 100.307 130.467C101.314 130.467 102.127 130.815 102.747 131.513C103.371 132.21 103.684 133.137 103.684 134.295V134.384C103.684 135.104 103.545 135.751 103.267 136.325C102.993 136.895 102.599 137.339 102.084 137.658C101.574 137.977 100.986 138.137 100.32 138.137C99.3177 138.137 98.5042 137.788 97.8799 137.091C97.2601 136.394 96.9502 135.471 96.9502 134.322V134.233ZM98.2217 134.384C98.2217 135.204 98.4108 135.863 98.7891 136.359C99.1719 136.856 99.6823 137.104 100.32 137.104C100.963 137.104 101.473 136.854 101.852 136.353C102.23 135.847 102.419 135.14 102.419 134.233C102.419 133.422 102.225 132.766 101.838 132.265C101.455 131.759 100.945 131.506 100.307 131.506C99.6823 131.506 99.1787 131.754 98.7959 132.251C98.4131 132.748 98.2217 133.459 98.2217 134.384ZM106.466 130.604L106.507 131.533C107.072 130.822 107.81 130.467 108.722 130.467C110.285 130.467 111.073 131.349 111.087 133.112V138H109.822V133.105C109.818 132.572 109.695 132.178 109.453 131.923C109.216 131.668 108.845 131.54 108.339 131.54C107.929 131.54 107.569 131.649 107.259 131.868C106.949 132.087 106.707 132.374 106.534 132.729V138H105.27V130.604H106.466ZM115.435 136.284L117.267 130.604H118.559L115.906 138H114.942L112.263 130.604H113.555L115.435 136.284ZM127.274 138H126.003V129.571L123.453 130.508V129.359L127.076 127.999H127.274V138ZM133.591 133.304L135.231 130.604H136.708L134.288 134.261L136.783 138H135.32L133.611 135.231L131.902 138H130.433L132.928 134.261L130.508 130.604H131.971L133.591 133.304ZM142.081 138H140.81V129.571L138.26 130.508V129.359L141.883 127.999H142.081V138Z" fill="black"/>
<path d="M436.924 137.104C437.375 137.104 437.769 136.968 438.106 136.694C438.444 136.421 438.631 136.079 438.667 135.669H439.863C439.84 136.093 439.695 136.496 439.426 136.879C439.157 137.262 438.797 137.567 438.346 137.795C437.899 138.023 437.425 138.137 436.924 138.137C435.917 138.137 435.115 137.802 434.518 137.132C433.925 136.457 433.629 135.537 433.629 134.37V134.158C433.629 133.438 433.761 132.798 434.025 132.237C434.29 131.677 434.668 131.242 435.16 130.932C435.657 130.622 436.243 130.467 436.917 130.467C437.746 130.467 438.435 130.715 438.981 131.212C439.533 131.709 439.827 132.354 439.863 133.146H438.667C438.631 132.668 438.448 132.276 438.12 131.971C437.797 131.661 437.396 131.506 436.917 131.506C436.274 131.506 435.775 131.738 435.42 132.203C435.069 132.663 434.894 133.331 434.894 134.206V134.445C434.894 135.298 435.069 135.954 435.42 136.414C435.771 136.874 436.272 137.104 436.924 137.104ZM440.95 134.233C440.95 133.509 441.091 132.857 441.374 132.278C441.661 131.7 442.058 131.253 442.563 130.938C443.074 130.624 443.655 130.467 444.307 130.467C445.314 130.467 446.127 130.815 446.747 131.513C447.371 132.21 447.684 133.137 447.684 134.295V134.384C447.684 135.104 447.545 135.751 447.267 136.325C446.993 136.895 446.599 137.339 446.084 137.658C445.574 137.977 444.986 138.137 444.32 138.137C443.318 138.137 442.504 137.788 441.88 137.091C441.26 136.394 440.95 135.471 440.95 134.322V134.233ZM442.222 134.384C442.222 135.204 442.411 135.863 442.789 136.359C443.172 136.856 443.682 137.104 444.32 137.104C444.963 137.104 445.473 136.854 445.852 136.353C446.23 135.847 446.419 135.14 446.419 134.233C446.419 133.422 446.225 132.766 445.838 132.265C445.455 131.759 444.945 131.506 444.307 131.506C443.682 131.506 443.179 131.754 442.796 132.251C442.413 132.748 442.222 133.459 442.222 134.384ZM450.466 130.604L450.507 131.533C451.072 130.822 451.81 130.467 452.722 130.467C454.285 130.467 455.073 131.349 455.087 133.112V138H453.822V133.105C453.818 132.572 453.695 132.178 453.453 131.923C453.216 131.668 452.845 131.54 452.339 131.54C451.929 131.54 451.569 131.649 451.259 131.868C450.949 132.087 450.707 132.374 450.534 132.729V138H449.27V130.604H450.466ZM459.435 136.284L461.267 130.604H462.559L459.906 138H458.942L456.263 130.604H457.555L459.435 136.284ZM471.274 138H470.003V129.571L467.453 130.508V129.359L471.076 127.999H471.274V138ZM477.591 133.304L479.231 130.604H480.708L478.288 134.261L480.783 138H479.32L477.611 135.231L475.902 138H474.433L476.928 134.261L474.508 130.604H475.971L477.591 133.304ZM486.081 138H484.81V129.571L482.26 130.508V129.359L485.883 127.999H486.081V138Z" fill="black"/>
<path d="M264.424 137.104C264.875 137.104 265.269 136.968 265.606 136.694C265.944 136.421 266.131 136.079 266.167 135.669H267.363C267.34 136.093 267.195 136.496 266.926 136.879C266.657 137.262 266.297 137.567 265.846 137.795C265.399 138.023 264.925 138.137 264.424 138.137C263.417 138.137 262.615 137.802 262.018 137.132C261.425 136.457 261.129 135.537 261.129 134.37V134.158C261.129 133.438 261.261 132.798 261.525 132.237C261.79 131.677 262.168 131.242 262.66 130.932C263.157 130.622 263.743 130.467 264.417 130.467C265.246 130.467 265.935 130.715 266.481 131.212C267.033 131.709 267.327 132.354 267.363 133.146H266.167C266.131 132.668 265.948 132.276 265.62 131.971C265.297 131.661 264.896 131.506 264.417 131.506C263.774 131.506 263.275 131.738 262.92 132.203C262.569 132.663 262.394 133.331 262.394 134.206V134.445C262.394 135.298 262.569 135.954 262.92 136.414C263.271 136.874 263.772 137.104 264.424 137.104ZM268.45 134.233C268.45 133.509 268.591 132.857 268.874 132.278C269.161 131.7 269.558 131.253 270.063 130.938C270.574 130.624 271.155 130.467 271.807 130.467C272.814 130.467 273.627 130.815 274.247 131.513C274.871 132.21 275.184 133.137 275.184 134.295V134.384C275.184 135.104 275.045 135.751 274.767 136.325C274.493 136.895 274.099 137.339 273.584 137.658C273.074 137.977 272.486 138.137 271.82 138.137C270.818 138.137 270.004 137.788 269.38 137.091C268.76 136.394 268.45 135.471 268.45 134.322V134.233ZM269.722 134.384C269.722 135.204 269.911 135.863 270.289 136.359C270.672 136.856 271.182 137.104 271.82 137.104C272.463 137.104 272.973 136.854 273.352 136.353C273.73 135.847 273.919 135.14 273.919 134.233C273.919 133.422 273.725 132.766 273.338 132.265C272.955 131.759 272.445 131.506 271.807 131.506C271.182 131.506 270.679 131.754 270.296 132.251C269.913 132.748 269.722 133.459 269.722 134.384ZM277.966 130.604L278.007 131.533C278.572 130.822 279.31 130.467 280.222 130.467C281.785 130.467 282.573 131.349 282.587 133.112V138H281.322V133.105C281.318 132.572 281.195 132.178 280.953 131.923C280.716 131.668 280.345 131.54 279.839 131.54C279.429 131.54 279.069 131.649 278.759 131.868C278.449 132.087 278.207 132.374 278.034 132.729V138H276.77V130.604H277.966ZM286.935 136.284L288.767 130.604H290.059L287.406 138H286.442L283.763 130.604H285.055L286.935 136.284ZM296.457 132.408H297.407C298.004 132.399 298.474 132.242 298.815 131.937C299.157 131.631 299.328 131.219 299.328 130.699C299.328 129.533 298.747 128.949 297.585 128.949C297.038 128.949 296.601 129.106 296.272 129.421C295.949 129.731 295.787 130.143 295.787 130.658H294.522C294.522 129.87 294.81 129.216 295.384 128.696C295.963 128.172 296.696 127.91 297.585 127.91C298.524 127.91 299.26 128.159 299.793 128.655C300.326 129.152 300.593 129.842 300.593 130.727C300.593 131.16 300.451 131.579 300.169 131.984C299.891 132.39 299.51 132.693 299.027 132.894C299.574 133.067 299.996 133.354 300.292 133.755C300.593 134.156 300.743 134.646 300.743 135.225C300.743 136.118 300.451 136.826 299.868 137.351C299.285 137.875 298.526 138.137 297.592 138.137C296.658 138.137 295.896 137.884 295.309 137.378C294.725 136.872 294.434 136.204 294.434 135.375H295.705C295.705 135.899 295.876 136.318 296.218 136.633C296.56 136.947 297.018 137.104 297.592 137.104C298.202 137.104 298.67 136.945 298.993 136.626C299.317 136.307 299.479 135.849 299.479 135.252C299.479 134.673 299.301 134.229 298.945 133.919C298.59 133.609 298.077 133.45 297.407 133.44H296.457V132.408ZM305.091 133.304L306.731 130.604H308.208L305.788 134.261L308.283 138H306.82L305.111 135.231L303.402 138H301.933L304.428 134.261L302.008 130.604H303.471L305.091 133.304ZM311.264 132.408H312.214C312.811 132.399 313.28 132.242 313.622 131.937C313.964 131.631 314.135 131.219 314.135 130.699C314.135 129.533 313.554 128.949 312.392 128.949C311.845 128.949 311.407 129.106 311.079 129.421C310.756 129.731 310.594 130.143 310.594 130.658H309.329C309.329 129.87 309.616 129.216 310.19 128.696C310.769 128.172 311.503 127.91 312.392 127.91C313.33 127.91 314.066 128.159 314.6 128.655C315.133 129.152 315.399 129.842 315.399 130.727C315.399 131.16 315.258 131.579 314.976 131.984C314.698 132.39 314.317 132.693 313.834 132.894C314.381 133.067 314.802 133.354 315.099 133.755C315.399 134.156 315.55 134.646 315.55 135.225C315.55 136.118 315.258 136.826 314.675 137.351C314.091 137.875 313.333 138.137 312.398 138.137C311.464 138.137 310.703 137.884 310.115 137.378C309.532 136.872 309.24 136.204 309.24 135.375H310.512C310.512 135.899 310.683 136.318 311.024 136.633C311.366 136.947 311.824 137.104 312.398 137.104C313.009 137.104 313.476 136.945 313.8 136.626C314.123 136.307 314.285 135.849 314.285 135.252C314.285 134.673 314.107 134.229 313.752 133.919C313.396 133.609 312.884 133.45 312.214 133.44H311.264V132.408Z" fill="black"/>
</svg>
