<svg width="362" height="278" viewBox="0 0 362 278" fill="none" xmlns="http://www.w3.org/2000/svg">
<rect width="362" height="278" fill="white"/>
<path d="M296 197.5L361 132.5V1L296 66V197.5Z" fill="#FDEBDD"/>
<path d="M249.5 197.5H296V66H249.5V197.5Z" fill="#FDEBDD"/>
<path d="M296 66L361 1H314.5L249.5 66H296Z" fill="#FDEBDD"/>
<path d="M296 197.5H249.5V66M296 197.5L361 132.5V1M296 197.5V66M361 1L296 66M361 1H314.5L249.5 66M296 66H249.5" stroke="#424242"/>
<path d="M274.306 207.896C274.192 208.945 273.816 209.747 273.178 210.303C272.544 210.859 271.699 211.137 270.642 211.137C269.903 211.137 269.249 210.952 268.68 210.583C268.115 210.214 267.677 209.692 267.367 209.018C267.057 208.339 266.9 207.564 266.896 206.693V205.401C266.896 204.517 267.05 203.733 267.36 203.05C267.67 202.366 268.115 201.84 268.693 201.471C269.277 201.097 269.947 200.91 270.703 200.91C271.77 200.91 272.61 201.2 273.226 201.778C273.845 202.353 274.205 203.148 274.306 204.164H273.458C273.248 202.473 272.33 201.628 270.703 201.628C269.801 201.628 269.081 201.965 268.543 202.64C268.01 203.314 267.743 204.246 267.743 205.436V206.652C267.743 207.801 268.003 208.717 268.522 209.4C269.047 210.084 269.753 210.426 270.642 210.426C271.521 210.426 272.184 210.216 272.631 209.797C273.077 209.373 273.353 208.74 273.458 207.896H274.306Z" fill="black"/>
<path d="M34 254H33.5V254.5H34V254ZM270 254V254.5H270.5V254H270ZM270.354 216.646C270.158 216.451 269.842 216.451 269.646 216.646L266.464 219.828C266.269 220.024 266.269 220.34 266.464 220.536C266.66 220.731 266.976 220.731 267.172 220.536L270 217.707L272.828 220.536C273.024 220.731 273.34 220.731 273.536 220.536C273.731 220.34 273.731 220.024 273.536 219.828L270.354 216.646ZM33.5 217V254H34.5V217H33.5ZM34 254.5H270V253.5H34V254.5ZM270.5 254V217H269.5V254H270.5Z" fill="#424242"/>
<ellipse cx="163" cy="254" rx="8" ry="13" fill="white"/>
<path d="M163.727 253.328H168.919V254.641H163.727V260.289H162.309V254.641H157.223V253.328H162.309V247.867H163.727V253.328Z" fill="black"/>
<path d="M58.5 197.5L123.5 132.5V1L58.5 66V197.5Z" fill="#FDEBDD"/>
<path d="M12 197.5H58.5V66H12V197.5Z" fill="#FDEBDD"/>
<path d="M58.5 66L123.5 1H77L12 66H58.5Z" fill="#FDEBDD"/>
<path d="M58.5 197.5H12V66M58.5 197.5L123.5 132.5V1M58.5 197.5V66M123.5 1L58.5 66M123.5 1H77L12 66M58.5 66H12" stroke="#424242"/>
<path d="M8.63379 129H7.78613V124.229H2.09863V129H1.25781V119.047H2.09863V123.518H7.78613V119.047H8.63379V129Z" fill="black"/>
<path d="M39.3057 207.896C39.1917 208.945 38.8158 209.747 38.1777 210.303C37.5443 210.859 36.6989 211.137 35.6416 211.137C34.9033 211.137 34.2493 210.952 33.6797 210.583C33.1146 210.214 32.6771 209.692 32.3672 209.018C32.0573 208.339 31.9001 207.564 31.8955 206.693V205.401C31.8955 204.517 32.0505 203.733 32.3604 203.05C32.6702 202.366 33.1146 201.84 33.6934 201.471C34.2767 201.097 34.9466 200.91 35.7031 200.91C36.7695 200.91 37.6104 201.2 38.2256 201.778C38.8454 202.353 39.2054 203.148 39.3057 204.164H38.458C38.2484 202.473 37.3301 201.628 35.7031 201.628C34.8008 201.628 34.0807 201.965 33.543 202.64C33.0098 203.314 32.7432 204.246 32.7432 205.436V206.652C32.7432 207.801 33.0029 208.717 33.5225 209.4C34.0465 210.084 34.7529 210.426 35.6416 210.426C36.5212 210.426 37.1842 210.216 37.6309 209.797C38.0775 209.373 38.3532 208.74 38.458 207.896H39.3057Z" fill="black"/>
<path d="M99.4506 172L100.755 172.883L99.985 171.568L96.3675 164.831L96.9074 164.298L103.579 168.018L104.889 168.819L104.027 167.479L100.2 161.046L100.813 160.441L105.993 169.314L105.419 169.881L98.3426 165.926L97.4709 165.404L97.9876 166.277L101.815 173.44L101.241 174.007L92.4378 168.713L93.0506 168.107L99.4506 172Z" fill="black"/>
<path d="M141.532 268.738C141.341 268.706 141.133 268.69 140.91 268.69C140.081 268.69 139.518 269.044 139.222 269.75V275H137.957V267.604H139.188L139.208 268.458C139.623 267.797 140.211 267.467 140.972 267.467C141.218 267.467 141.405 267.499 141.532 267.562V268.738ZM145.634 275.137C144.631 275.137 143.815 274.809 143.187 274.152C142.558 273.492 142.243 272.61 142.243 271.507V271.274C142.243 270.541 142.382 269.887 142.66 269.312C142.943 268.734 143.335 268.283 143.836 267.959C144.342 267.631 144.889 267.467 145.477 267.467C146.438 267.467 147.186 267.784 147.719 268.417C148.252 269.05 148.519 269.957 148.519 271.138V271.664H143.508C143.526 272.393 143.738 272.983 144.144 273.435C144.554 273.881 145.073 274.104 145.702 274.104C146.149 274.104 146.527 274.013 146.837 273.831C147.147 273.649 147.418 273.407 147.65 273.106L148.423 273.708C147.803 274.66 146.873 275.137 145.634 275.137ZM145.477 268.506C144.966 268.506 144.538 268.693 144.191 269.066C143.845 269.436 143.631 269.955 143.549 270.625H147.254V270.529C147.217 269.887 147.044 269.39 146.734 269.039C146.424 268.684 146.005 268.506 145.477 268.506ZM154.295 273.038C154.295 272.696 154.165 272.432 153.905 272.245C153.65 272.054 153.201 271.89 152.559 271.753C151.921 271.616 151.412 271.452 151.034 271.261C150.66 271.069 150.382 270.841 150.2 270.577C150.022 270.313 149.934 269.998 149.934 269.634C149.934 269.028 150.189 268.515 150.699 268.096C151.214 267.676 151.87 267.467 152.668 267.467C153.507 267.467 154.186 267.683 154.705 268.116C155.229 268.549 155.491 269.103 155.491 269.777H154.22C154.22 269.431 154.072 269.132 153.775 268.882C153.484 268.631 153.115 268.506 152.668 268.506C152.208 268.506 151.848 268.606 151.588 268.807C151.328 269.007 151.198 269.269 151.198 269.593C151.198 269.898 151.319 270.128 151.561 270.283C151.802 270.438 152.237 270.586 152.866 270.728C153.5 270.869 154.012 271.037 154.404 271.233C154.796 271.429 155.086 271.666 155.272 271.944C155.464 272.218 155.56 272.553 155.56 272.949C155.56 273.61 155.295 274.141 154.767 274.542C154.238 274.938 153.552 275.137 152.709 275.137C152.117 275.137 151.592 275.032 151.137 274.822C150.681 274.613 150.323 274.321 150.063 273.947C149.808 273.569 149.681 273.161 149.681 272.724H150.945C150.968 273.147 151.137 273.485 151.451 273.735C151.77 273.981 152.189 274.104 152.709 274.104C153.188 274.104 153.57 274.009 153.857 273.817C154.149 273.621 154.295 273.362 154.295 273.038ZM158.581 275H157.316V267.604H158.581V275ZM157.214 265.642C157.214 265.437 157.275 265.263 157.398 265.122C157.526 264.981 157.713 264.91 157.959 264.91C158.205 264.91 158.392 264.981 158.52 265.122C158.647 265.263 158.711 265.437 158.711 265.642C158.711 265.847 158.647 266.018 158.52 266.154C158.392 266.291 158.205 266.359 157.959 266.359C157.713 266.359 157.526 266.291 157.398 266.154C157.275 266.018 157.214 265.847 157.214 265.642ZM160.304 271.24C160.304 270.105 160.573 269.194 161.11 268.506C161.648 267.813 162.352 267.467 163.223 267.467C164.089 267.467 164.774 267.763 165.28 268.355V264.5H166.545V275H165.383L165.321 274.207C164.815 274.827 164.111 275.137 163.209 275.137C162.352 275.137 161.653 274.786 161.11 274.084C160.573 273.382 160.304 272.466 160.304 271.336V271.24ZM161.568 271.384C161.568 272.222 161.742 272.879 162.088 273.353C162.434 273.826 162.913 274.063 163.523 274.063C164.326 274.063 164.911 273.703 165.28 272.983V269.586C164.902 268.889 164.321 268.54 163.537 268.54C162.917 268.54 162.434 268.779 162.088 269.258C161.742 269.736 161.568 270.445 161.568 271.384ZM173.08 274.269C172.588 274.847 171.866 275.137 170.913 275.137C170.125 275.137 169.523 274.909 169.108 274.453C168.698 273.993 168.491 273.314 168.486 272.416V267.604H169.751V272.382C169.751 273.503 170.207 274.063 171.118 274.063C172.084 274.063 172.727 273.703 173.046 272.983V267.604H174.311V275H173.107L173.08 274.269ZM180.805 275C180.732 274.854 180.673 274.594 180.627 274.221C180.039 274.831 179.337 275.137 178.521 275.137C177.792 275.137 177.193 274.932 176.724 274.521C176.259 274.107 176.026 273.583 176.026 272.949C176.026 272.179 176.318 271.582 176.901 271.158C177.489 270.73 178.314 270.516 179.376 270.516H180.606V269.935C180.606 269.493 180.474 269.142 180.21 268.882C179.946 268.618 179.556 268.485 179.041 268.485C178.59 268.485 178.212 268.599 177.906 268.827C177.601 269.055 177.448 269.331 177.448 269.654H176.177C176.177 269.285 176.307 268.93 176.566 268.588C176.831 268.242 177.186 267.968 177.633 267.768C178.084 267.567 178.578 267.467 179.116 267.467C179.968 267.467 180.636 267.681 181.119 268.109C181.602 268.533 181.853 269.119 181.871 269.866V273.271C181.871 273.95 181.958 274.49 182.131 274.891V275H180.805ZM178.706 274.036C179.103 274.036 179.479 273.934 179.834 273.729C180.189 273.523 180.447 273.257 180.606 272.929V271.411H179.615C178.066 271.411 177.291 271.865 177.291 272.771C177.291 273.168 177.423 273.478 177.688 273.701C177.952 273.924 178.291 274.036 178.706 274.036ZM185.228 275H183.963V264.5H185.228V275Z" fill="black"/>
<path d="M144.881 96.3281C144.881 95.4622 145.153 94.7324 145.697 94.1387C146.266 93.5202 147.046 93.2109 148.035 93.2109C149.025 93.2109 149.804 93.5202 150.373 94.1387C150.942 94.7324 151.227 95.4622 151.227 96.3281C151.227 97.194 150.942 97.9115 150.373 98.4805C149.804 99.0247 149.025 99.2969 148.035 99.2969C147.046 99.2969 146.266 99.0247 145.697 98.4805C145.153 97.9115 144.881 97.194 144.881 96.3281ZM181.545 96.3281C181.545 95.4622 181.817 94.7324 182.361 94.1387C182.93 93.5202 183.71 93.2109 184.699 93.2109C185.689 93.2109 186.468 93.5202 187.037 94.1387C187.606 94.7324 187.891 95.4622 187.891 96.3281C187.891 97.194 187.606 97.9115 187.037 98.4805C186.468 99.0247 185.689 99.2969 184.699 99.2969C183.71 99.2969 182.93 99.0247 182.361 98.4805C181.817 97.9115 181.545 97.194 181.545 96.3281ZM218.209 96.3281C218.209 95.4622 218.481 94.7324 219.025 94.1387C219.594 93.5202 220.374 93.2109 221.363 93.2109C222.353 93.2109 223.132 93.5202 223.701 94.1387C224.27 94.7324 224.555 95.4622 224.555 96.3281C224.555 97.194 224.27 97.9115 223.701 98.4805C223.132 99.0247 222.353 99.2969 221.363 99.2969C220.374 99.2969 219.594 99.0247 219.025 98.4805C218.481 97.9115 218.209 97.194 218.209 96.3281Z" fill="black"/>
</svg>
